<svg width="894" height="323" viewBox="0 0 894 323" fill="none" xmlns="http://www.w3.org/2000/svg">
<path d="M335.477 233.901H549.19" stroke="black" stroke-width="9.99561" stroke-miterlimit="1.5" stroke-linecap="round" stroke-linejoin="round"/>
<path d="M414.938 262.676H594.643" stroke="black" stroke-width="9.90352" stroke-miterlimit="1.5" stroke-linecap="round" stroke-linejoin="round"/>
<path d="M442.334 290.96H565.415" stroke="black" stroke-width="9.23681" stroke-miterlimit="1.5" stroke-linecap="round" stroke-linejoin="round"/>
<path d="M397.018 318.389H520.099" stroke="black" stroke-width="9.23681" stroke-miterlimit="1.5" stroke-linecap="round" stroke-linejoin="round"/>
<path d="M731.354 215.218H802.324" stroke="black" stroke-width="7.65229" stroke-miterlimit="1.5" stroke-linecap="round" stroke-linejoin="round"/>
<path d="M731.354 237.391H780.211" stroke="black" stroke-width="6.51307" stroke-miterlimit="1.5" stroke-linecap="round" stroke-linejoin="round"/>
<path d="M744.725 261.368H796.304" stroke="black" stroke-width="6.6791" stroke-miterlimit="1.5" stroke-linecap="round" stroke-linejoin="round"/>
<path d="M695.869 285.847H766.839" stroke="black" stroke-width="7.65229" stroke-miterlimit="1.5" stroke-linecap="round" stroke-linejoin="round"/>
<path d="M99.1901 215.218H170.16" stroke="black" stroke-width="7.65229" stroke-miterlimit="1.5" stroke-linecap="round" stroke-linejoin="round"/>
<path d="M109.397 235.762H155.09" stroke="black" stroke-width="6.31699" stroke-miterlimit="1.5" stroke-linecap="round" stroke-linejoin="round"/>
<path d="M84.1207 261.368H155.091" stroke="black" stroke-width="7.65229" stroke-miterlimit="1.5" stroke-linecap="round" stroke-linejoin="round"/>
<path d="M132.243 284.991H186.87" stroke="black" stroke-width="6.84698" stroke-miterlimit="1.5" stroke-linecap="round" stroke-linejoin="round"/>
<path d="M335.854 149.46H547.156" stroke="black" stroke-width="9.99153" stroke-miterlimit="1.5" stroke-linecap="round" stroke-linejoin="round"/>
<path d="M335.476 202.335H458.557" stroke="black" stroke-width="9.23681" stroke-miterlimit="1.5" stroke-linecap="round" stroke-linejoin="round"/>
<path d="M397.017 179.226H565.413" stroke="black" stroke-width="9.83266" stroke-miterlimit="1.5" stroke-linecap="round" stroke-linejoin="round"/>
<path fill-rule="evenodd" clip-rule="evenodd" d="M5.26599 237.39C32.7611 106.63 220.055 5.31934 446.706 5.31934C673.355 5.31934 860.647 106.63 888.148 237.39H826.87C826.87 199.323 795.96 168.413 757.894 168.413C719.833 168.413 688.928 199.323 688.928 237.39H623.825C623.825 139.639 544.461 60.2646 446.706 60.2646C348.951 60.2646 269.584 139.639 269.584 237.39H203.281C203.281 199.323 172.376 168.413 134.312 168.413C96.2451 168.413 65.3406 199.323 65.3406 237.39H5.26599Z" fill="white" stroke="black" stroke-width="10.0037" stroke-miterlimit="1.5" stroke-linecap="round" stroke-linejoin="round"/>
<path d="M242.087 179.107L278.214 179.08" stroke="black" stroke-width="5.73867" stroke-miterlimit="1.5" stroke-linecap="round" stroke-linejoin="round"/>
<path d="M826.827 215.21L862.954 215.183" stroke="black" stroke-width="5.73867" stroke-miterlimit="1.5" stroke-linecap="round" stroke-linejoin="round"/>
<path d="M36.2004 202.398L72.3271 202.371" stroke="black" stroke-width="5.73867" stroke-miterlimit="1.5" stroke-linecap="round" stroke-linejoin="round"/>
<path d="M623.998 215.182L660.124 215.155" stroke="black" stroke-width="5.73867" stroke-miterlimit="1.5" stroke-linecap="round" stroke-linejoin="round"/>
<path d="M543.841 84.6807L579.967 84.654" stroke="black" stroke-width="5.73867" stroke-miterlimit="1.5" stroke-linecap="round" stroke-linejoin="round"/>
<path d="M605.935 154.815L642.061 154.788" stroke="black" stroke-width="5.73867" stroke-miterlimit="1.5" stroke-linecap="round" stroke-linejoin="round"/>
<path d="M255.39 149.45L291.516 149.423" stroke="black" stroke-width="5.73867" stroke-miterlimit="1.5" stroke-linecap="round" stroke-linejoin="round"/>
<path d="M589.346 131.378L622.524 131.353" stroke="black" stroke-width="5.5069" stroke-miterlimit="1.5" stroke-linecap="round" stroke-linejoin="round"/>
</svg>
