<svg width="965" height="728" viewBox="0 0 965 728" fill="none" xmlns="http://www.w3.org/2000/svg">
<path fill-rule="evenodd" clip-rule="evenodd" d="M595.662 639.235H339.666L403.665 255.966H531.663L595.662 639.235Z" fill="white" stroke="black" stroke-width="9.19527" stroke-miterlimit="1.5" stroke-linecap="round" stroke-linejoin="round"/>
<path fill-rule="evenodd" clip-rule="evenodd" d="M467.662 129.602L566.769 255.967H368.555L467.662 129.602Z" fill="white" stroke="black" stroke-width="9.13679" stroke-miterlimit="1.5" stroke-linecap="round" stroke-linejoin="round"/>
<path fill-rule="evenodd" clip-rule="evenodd" d="M513.641 639.236H421.687L444.676 590.342H490.652L513.641 639.236Z" fill="white" stroke="black" stroke-width="9.19527" stroke-miterlimit="1.5" stroke-linecap="round" stroke-linejoin="round"/>
<path fill-rule="evenodd" clip-rule="evenodd" d="M449.561 333.258C449.624 327.92 457.71 323.597 467.663 323.597C477.655 323.597 485.765 327.954 485.765 333.321L493.325 369.858H442.63L449.561 333.321V333.258Z" fill="white" stroke="black" stroke-width="9.13679" stroke-miterlimit="1.5" stroke-linecap="round" stroke-linejoin="round"/>
<path d="M467.979 129.595V5.7286" stroke="black" stroke-width="9.57649" stroke-miterlimit="1.5" stroke-linecap="round" stroke-linejoin="round"/>
<path fill-rule="evenodd" clip-rule="evenodd" d="M630.728 48.8592L467.99 91.9849V5.7334L630.728 48.8592Z" fill="white" stroke="black" stroke-width="9.99741" stroke-miterlimit="1.5" stroke-linecap="round" stroke-linejoin="round"/>
<path d="M5.12793 700.282H153.646" stroke="black" stroke-width="9.86459" stroke-miterlimit="1.5" stroke-linecap="round" stroke-linejoin="round"/>
<path d="M102.724 671.366H153.646" stroke="black" stroke-width="9.86459" stroke-miterlimit="1.5" stroke-linecap="round" stroke-linejoin="round"/>
<path d="M785.303 722.362H959.576" stroke="black" stroke-width="9.86459" stroke-miterlimit="1.5" stroke-linecap="round" stroke-linejoin="round"/>
<path d="M782.713 671.366H878.11" stroke="black" stroke-width="9.86459" stroke-miterlimit="1.5" stroke-linecap="round" stroke-linejoin="round"/>
<path d="M79.387 624.926H153.646" stroke="black" stroke-width="9.86459" stroke-miterlimit="1.5" stroke-linecap="round" stroke-linejoin="round"/>
<path d="M782.713 700.282H859.557" stroke="black" stroke-width="9.86459" stroke-miterlimit="1.5" stroke-linecap="round" stroke-linejoin="round"/>
<path fill-rule="evenodd" clip-rule="evenodd" d="M339.848 700.283H181.507L221.093 344.471H300.263L339.848 700.283Z" fill="white" stroke="black" stroke-width="9.29588" stroke-miterlimit="1.5" stroke-linecap="round" stroke-linejoin="round"/>
<path fill-rule="evenodd" clip-rule="evenodd" d="M757.403 700.283H599.062L638.647 344.471H717.818L757.403 700.283Z" fill="white" stroke="black" stroke-width="9.29588" stroke-miterlimit="1.5" stroke-linecap="round" stroke-linejoin="round"/>
<path fill-rule="evenodd" clip-rule="evenodd" d="M483.139 555.571H452.021V527.484H420.468V555.571H391.263V527.484H359.71V555.571H330.249V527.484H298.696V555.571H268.841V527.484H237.288V555.571H206.959V527.484H175.406V555.571H153.64V722.369H782.723V555.571H759.754V527.484H728.201V555.571H698.997V527.484H667.444V555.571H637.983V527.484H606.43V555.571H576.574V527.484H545.021V555.571H514.712V527.484H483.139V555.571Z" fill="white" stroke="black" stroke-width="10.0066" stroke-miterlimit="1.5" stroke-linecap="round" stroke-linejoin="round"/>
<path fill-rule="evenodd" clip-rule="evenodd" d="M431.434 650.866C431.562 641.962 447.98 634.749 468.183 634.749C488.467 634.749 504.934 642.017 504.934 650.975V722.365H431.434V650.975V650.866Z" fill="white" stroke="black" stroke-width="8.59021" stroke-miterlimit="1.5" stroke-linecap="round" stroke-linejoin="round"/>
<path d="M455.595 722.359L455.767 639.324" stroke="black" stroke-width="10.0063" stroke-miterlimit="1.5" stroke-linecap="round" stroke-linejoin="round"/>
<path d="M480.18 722.359L480.352 639.324" stroke="black" stroke-width="10.0063" stroke-miterlimit="1.5" stroke-linecap="round" stroke-linejoin="round"/>
<path d="M431.426 701.16L504.933 700.28" stroke="black" stroke-width="10.0063" stroke-miterlimit="1.5" stroke-linecap="round" stroke-linejoin="round"/>
<path d="M431.426 678.549L504.933 677.669" stroke="black" stroke-width="10.0063" stroke-miterlimit="1.5" stroke-linecap="round" stroke-linejoin="round"/>
<path d="M431.426 656.884L504.933 656.004" stroke="black" stroke-width="10.0063" stroke-miterlimit="1.5" stroke-linecap="round" stroke-linejoin="round"/>
<path fill-rule="evenodd" clip-rule="evenodd" d="M260.684 256.116L325.472 344.474H195.896L260.684 256.116Z" fill="white" stroke="black" stroke-width="9.29117" stroke-miterlimit="1.5" stroke-linecap="round" stroke-linejoin="round"/>
<path fill-rule="evenodd" clip-rule="evenodd" d="M678.235 256.116L743.023 344.474H613.447L678.235 256.116Z" fill="white" stroke="black" stroke-width="9.29117" stroke-miterlimit="1.5" stroke-linecap="round" stroke-linejoin="round"/>
<path fill-rule="evenodd" clip-rule="evenodd" d="M277.889 443.154H243.479C243.479 443.154 248.389 410.719 250.795 394.879C251.529 389.991 255.737 386.376 260.679 386.376C265.632 386.376 269.829 389.991 270.574 394.879C272.969 410.719 277.889 443.154 277.889 443.154Z" fill="white" stroke="black" stroke-width="10.0025" stroke-miterlimit="1.5" stroke-linecap="round" stroke-linejoin="round"/>
<path fill-rule="evenodd" clip-rule="evenodd" d="M695.444 443.154H661.034C661.034 443.154 665.944 410.719 668.35 394.879C669.084 389.991 673.292 386.376 678.234 386.376C683.186 386.376 687.384 389.991 688.128 394.879C690.524 410.719 695.444 443.154 695.444 443.154Z" fill="white" stroke="black" stroke-width="10.0025" stroke-miterlimit="1.5" stroke-linecap="round" stroke-linejoin="round"/>
</svg>
