<svg width="1039" height="734" viewBox="0 0 1039 734" fill="none" xmlns="http://www.w3.org/2000/svg">
<path fill-rule="evenodd" clip-rule="evenodd" d="M110.664 339.077L178.739 454.522H314.89L382.965 339.077V304.987H326.07V339.077H275.269V304.987H218.375V339.077H167.559V304.987H110.664V339.077Z" fill="white" stroke="black" stroke-width="10.0038" stroke-miterlimit="1.5" stroke-linecap="round" stroke-linejoin="round"/>
<path d="M311.102 454.522H182.542V728.141H311.102V454.522Z" fill="white" stroke="black" stroke-width="10.0038" stroke-miterlimit="1.5" stroke-linecap="round" stroke-linejoin="round"/>
<path fill-rule="evenodd" clip-rule="evenodd" d="M231.164 659.133C231.219 650.539 238.214 643.576 246.821 643.576C255.463 643.576 262.479 650.592 262.479 659.238V728.146H231.164V659.238V659.133Z" fill="white" stroke="black" stroke-width="10.0038" stroke-miterlimit="1.5" stroke-linecap="round" stroke-linejoin="round"/>
<path fill-rule="evenodd" clip-rule="evenodd" d="M652.263 339.077L720.338 454.522H856.489L924.564 339.077V304.987H867.668V339.077H816.868V304.987H759.973V339.077H709.158V304.987H652.263V339.077Z" fill="white" stroke="black" stroke-width="10.0038" stroke-miterlimit="1.5" stroke-linecap="round" stroke-linejoin="round"/>
<path d="M852.701 454.522H724.141V728.141H852.701V454.522Z" fill="white" stroke="black" stroke-width="10.0038" stroke-miterlimit="1.5" stroke-linecap="round" stroke-linejoin="round"/>
<path fill-rule="evenodd" clip-rule="evenodd" d="M772.763 659.133C772.818 650.539 779.812 643.576 788.42 643.576C797.062 643.576 804.078 650.592 804.078 659.238V728.146H772.763V659.238V659.133Z" fill="white" stroke="black" stroke-width="10.0038" stroke-miterlimit="1.5" stroke-linecap="round" stroke-linejoin="round"/>
<path fill-rule="evenodd" clip-rule="evenodd" d="M638.048 602.098H397.11L457.345 241.373H577.814L638.048 602.098Z" fill="white" stroke="black" stroke-width="9.19441" stroke-miterlimit="1.5" stroke-linecap="round" stroke-linejoin="round"/>
<path fill-rule="evenodd" clip-rule="evenodd" d="M517.579 122.44L610.856 241.372H424.302L517.579 122.44Z" fill="white" stroke="black" stroke-width="9.13242" stroke-miterlimit="1.5" stroke-linecap="round" stroke-linejoin="round"/>
<path fill-rule="evenodd" clip-rule="evenodd" d="M560.852 602.098H474.307L495.943 556.081H539.215L560.852 602.098Z" fill="white" stroke="black" stroke-width="9.19441" stroke-miterlimit="1.5" stroke-linecap="round" stroke-linejoin="round"/>
<path fill-rule="evenodd" clip-rule="evenodd" d="M500.542 314.116C500.602 309.092 508.212 305.023 517.579 305.023C526.983 305.023 534.617 309.124 534.617 314.175L541.731 348.563H494.019L500.542 314.175V314.116Z" fill="white" stroke="black" stroke-width="9.13242" stroke-miterlimit="1.5" stroke-linecap="round" stroke-linejoin="round"/>
<path d="M517.874 122.441V5.86026" stroke="black" stroke-width="9.58253" stroke-miterlimit="1.5" stroke-linecap="round" stroke-linejoin="round"/>
<path fill-rule="evenodd" clip-rule="evenodd" d="M671.041 46.4489L517.876 87.038V5.85986L671.041 46.4489Z" fill="white" stroke="black" stroke-width="10.0003" stroke-miterlimit="1.5" stroke-linecap="round" stroke-linejoin="round"/>
<path fill-rule="evenodd" clip-rule="evenodd" d="M380.752 497.994V461.094H340.533V497.994H312.793V717.276H722.369V497.994H693.096V461.094H652.879V497.994H615.659V461.094H575.442V497.994H537.891V461.094H497.674V497.994H459.614V461.094H419.396V497.994H380.752Z" fill="white" stroke="black" stroke-width="9.98989" stroke-miterlimit="1.5" stroke-linecap="round" stroke-linejoin="round"/>
<path fill-rule="evenodd" clip-rule="evenodd" d="M469.273 623.283C469.442 611.579 491.024 602.096 517.583 602.096C544.248 602.096 565.895 611.651 565.895 623.427V717.275H469.273V623.427V623.283Z" fill="white" stroke="black" stroke-width="8.6004" stroke-miterlimit="1.5" stroke-linecap="round" stroke-linejoin="round"/>
<path d="M860.913 676.375H1033.77" stroke="black" stroke-width="9.99376" stroke-miterlimit="1.5" stroke-linecap="round" stroke-linejoin="round"/>
<path d="M829.364 728.655H969.147" stroke="black" stroke-width="9.85981" stroke-miterlimit="1.5" stroke-linecap="round" stroke-linejoin="round"/>
<path d="M5.39624 717.371H178.25" stroke="black" stroke-width="9.99376" stroke-miterlimit="1.5" stroke-linecap="round" stroke-linejoin="round"/>
<path d="M91.8256 676.375H178.253" stroke="black" stroke-width="8.8767" stroke-miterlimit="1.5" stroke-linecap="round" stroke-linejoin="round"/>
<path d="M860.914 653.505H905.145" stroke="black" stroke-width="6.85199" stroke-miterlimit="1.5" stroke-linecap="round" stroke-linejoin="round"/>
<path d="M501.039 715.384V605.405" stroke="black" stroke-width="10.0102" stroke-miterlimit="1.5" stroke-linecap="round" stroke-linejoin="round"/>
<path d="M533.829 715.384V605.405" stroke="black" stroke-width="10.0102" stroke-miterlimit="1.5" stroke-linecap="round" stroke-linejoin="round"/>
<path d="M469.901 685.552L563.199 686.342" stroke="black" stroke-width="10.0102" stroke-miterlimit="1.5" stroke-linecap="round" stroke-linejoin="round"/>
<path d="M469.901 654.906L563.199 655.695" stroke="black" stroke-width="10.0102" stroke-miterlimit="1.5" stroke-linecap="round" stroke-linejoin="round"/>
<path d="M469.901 627.946L563.199 628.736" stroke="black" stroke-width="10.0102" stroke-miterlimit="1.5" stroke-linecap="round" stroke-linejoin="round"/>
</svg>
