<svg width="873" height="826" viewBox="0 0 873 826" fill="none" xmlns="http://www.w3.org/2000/svg">
<path fill-rule="evenodd" clip-rule="evenodd" d="M261.794 525.661H308.884V483.856H344.225V525.661H514.563V483.856H549.903V525.661H597.484V483.856H632.826V525.661H633.697L689.539 776.719H169.248L225.091 525.661H226.454V483.856H261.794V525.661Z" fill="white" stroke="black" stroke-width="9.99686" stroke-miterlimit="1.5" stroke-linecap="round" stroke-linejoin="round"/>
<path fill-rule="evenodd" clip-rule="evenodd" d="M539.391 820.542H319.397L374.395 207.351H484.392L539.391 820.542Z" fill="white" stroke="black" stroke-width="10.003" stroke-miterlimit="1.5" stroke-linecap="round" stroke-linejoin="round"/>
<path fill-rule="evenodd" clip-rule="evenodd" d="M429.392 5.1814L514.561 207.352H344.223L429.392 5.1814Z" fill="white" stroke="black" stroke-width="9.99686" stroke-miterlimit="1.5" stroke-linecap="round" stroke-linejoin="round"/>
<path fill-rule="evenodd" clip-rule="evenodd" d="M468.905 820.542H389.883L409.639 742.318H449.149L468.905 820.542Z" fill="white" stroke="black" stroke-width="10.003" stroke-miterlimit="1.5" stroke-linecap="round" stroke-linejoin="round"/>
<path fill-rule="evenodd" clip-rule="evenodd" d="M413.837 331.009C413.892 322.47 420.84 315.552 429.394 315.552C437.98 315.552 444.95 322.524 444.95 331.11L451.446 389.566H407.881L413.837 331.11V331.009Z" fill="white" stroke="black" stroke-width="9.99686" stroke-miterlimit="1.5" stroke-linecap="round" stroke-linejoin="round"/>
<path d="M539.389 820.542H826.317" stroke="black" stroke-width="10.003" stroke-miterlimit="1.5" stroke-linecap="round" stroke-linejoin="round"/>
<path d="M5.02429 776.72H291.952" stroke="black" stroke-width="9.99686" stroke-miterlimit="1.5" stroke-linecap="round" stroke-linejoin="round"/>
<path d="M80.6215 743.887H169.247" stroke="black" stroke-width="9.99821" stroke-miterlimit="1.5" stroke-linecap="round" stroke-linejoin="round"/>
<path d="M682.854 743.887H771.48" stroke="black" stroke-width="9.99821" stroke-miterlimit="1.5" stroke-linecap="round" stroke-linejoin="round"/>
<path d="M672.469 697.164H867.629" stroke="black" stroke-width="9.99821" stroke-miterlimit="1.5" stroke-linecap="round" stroke-linejoin="round"/>
</svg>
