<svg width="908" height="814" viewBox="0 0 908 814" fill="none" xmlns="http://www.w3.org/2000/svg">
<path fill-rule="evenodd" clip-rule="evenodd" d="M124.803 160.038L192.878 275.482H329.029L397.104 160.038V125.947H340.209V160.038H289.408V125.947H232.513V160.038H181.698V125.947H124.803V160.038Z" fill="white" stroke="black" stroke-width="10.0038" stroke-miterlimit="1.5" stroke-linecap="round" stroke-linejoin="round"/>
<path d="M325.242 275.482H196.681V549.102H325.242V275.482Z" fill="white" stroke="black" stroke-width="10.0038" stroke-miterlimit="1.5" stroke-linecap="round" stroke-linejoin="round"/>
<path fill-rule="evenodd" clip-rule="evenodd" d="M541.545 160.038L609.62 275.482H745.771L813.846 160.038V125.947H756.951V160.038H706.15V125.947H649.255V160.038H598.44V125.947H541.545V160.038Z" fill="white" stroke="black" stroke-width="10.0038" stroke-miterlimit="1.5" stroke-linecap="round" stroke-linejoin="round"/>
<path d="M741.984 275.482H613.423V549.102H741.984V275.482Z" fill="white" stroke="black" stroke-width="10.0038" stroke-miterlimit="1.5" stroke-linecap="round" stroke-linejoin="round"/>
<path fill-rule="evenodd" clip-rule="evenodd" d="M245.303 343.295C245.358 334.702 252.353 327.739 260.96 327.739C269.602 327.739 276.618 334.755 276.618 343.401V412.308H245.303V343.401V343.295Z" fill="white" stroke="black" stroke-width="10.0038" stroke-miterlimit="1.5" stroke-linecap="round" stroke-linejoin="round"/>
<path fill-rule="evenodd" clip-rule="evenodd" d="M662.048 343.295C662.102 334.702 669.097 327.739 677.705 327.739C686.347 327.739 693.363 334.755 693.363 343.401V412.308H662.048V343.401V343.295Z" fill="white" stroke="black" stroke-width="10.0038" stroke-miterlimit="1.5" stroke-linecap="round" stroke-linejoin="round"/>
<path fill-rule="evenodd" clip-rule="evenodd" d="M636.415 638.575H302.75L386.166 255.306H552.999L636.415 638.575Z" fill="white" stroke="black" stroke-width="8.46384" stroke-miterlimit="1.5" stroke-linecap="round" stroke-linejoin="round"/>
<path fill-rule="evenodd" clip-rule="evenodd" d="M469.587 128.937L568.694 255.302H370.48L469.587 128.937Z" fill="white" stroke="black" stroke-width="9.13679" stroke-miterlimit="1.5" stroke-linecap="round" stroke-linejoin="round"/>
<path fill-rule="evenodd" clip-rule="evenodd" d="M451.484 332.598C451.547 327.26 459.633 322.937 469.586 322.937C479.578 322.937 487.688 327.294 487.688 332.661L495.247 369.198H444.553L451.484 332.661V332.598Z" fill="white" stroke="black" stroke-width="9.13679" stroke-miterlimit="1.5" stroke-linecap="round" stroke-linejoin="round"/>
<path d="M469.901 128.933V5.06649" stroke="black" stroke-width="9.57649" stroke-miterlimit="1.5" stroke-linecap="round" stroke-linejoin="round"/>
<path d="M552.759 5.08105H469.891V67.0134H552.759V5.08105Z" fill="white" stroke="black" stroke-width="10.0102" stroke-miterlimit="1.5" stroke-linecap="round" stroke-linejoin="round"/>
<path fill-rule="evenodd" clip-rule="evenodd" d="M679.124 66.2971L552.764 96.5542V36.04L679.124 66.2971Z" fill="white" stroke="black" stroke-width="10.0102" stroke-miterlimit="1.5" stroke-linecap="round" stroke-linejoin="round"/>
<path fill-rule="evenodd" clip-rule="evenodd" d="M215.664 496.196H257.994V469.359H293.08V496.196H335.41V469.359H370.496V496.196H412.825V469.359H447.912V496.196H490.241V469.359H525.327V496.196H567.632V469.359H602.743V496.196H645.048V469.359H680.159V496.196H722.463V469.359H757.574V496.196H761.045L902.345 684.881H37.4875L178.768 496.196H180.578V469.359H215.664V496.196Z" fill="white" stroke="black" stroke-width="10.0102" stroke-miterlimit="1.5" stroke-linecap="round" stroke-linejoin="round"/>
<path fill-rule="evenodd" clip-rule="evenodd" d="M639.372 663.499L606.123 706.659C577.651 743.656 533.611 765.312 486.93 765.312C442.035 765.312 389.872 765.312 370.832 765.312C366.154 765.312 361.727 763.149 358.885 759.452C343.87 739.959 295.554 677.207 274.553 649.918C272.692 647.528 272.365 644.259 273.698 641.517C275.056 638.801 277.822 637.065 280.866 637.065C351.591 637.065 629.211 637.065 629.211 637.065L773.882 605.048L639.372 663.499Z" fill="white" stroke="black" stroke-width="10.0102" stroke-miterlimit="1.5" stroke-linecap="round" stroke-linejoin="round"/>
<path d="M420.948 438.345H407.905V637.053H420.948V438.345Z" fill="white" stroke="black" stroke-width="10.0102" stroke-miterlimit="1.5" stroke-linecap="round" stroke-linejoin="round"/>
<path d="M515.722 438.345H502.678V637.053H515.722V438.345Z" fill="white" stroke="black" stroke-width="10.0102" stroke-miterlimit="1.5" stroke-linecap="round" stroke-linejoin="round"/>
<path fill-rule="evenodd" clip-rule="evenodd" d="M455.951 618.418C468.552 600.485 484.448 576.138 484.448 550.761C484.448 525.358 468.552 501.011 455.951 483.079H360.93C348.329 501.011 373.807 525.358 373.807 550.761C373.807 576.138 348.329 600.485 360.93 618.418H455.951Z" fill="white" stroke="black" stroke-width="10.0102" stroke-miterlimit="1.5" stroke-linecap="round" stroke-linejoin="round"/>
<path fill-rule="evenodd" clip-rule="evenodd" d="M433.912 467.711C441.247 457.272 450.5 443.099 450.5 428.326C450.5 413.538 441.247 399.365 433.912 388.926H378.596C371.261 399.365 386.093 413.538 386.093 428.326C386.093 443.099 371.261 457.272 378.596 467.711H433.912Z" fill="white" stroke="black" stroke-width="10.0001" stroke-miterlimit="1.5" stroke-linecap="round" stroke-linejoin="round"/>
<path fill-rule="evenodd" clip-rule="evenodd" d="M537.368 467.711C546.985 457.272 559.117 443.099 559.117 428.326C559.117 413.538 546.985 399.365 537.368 388.926H464.848C455.231 399.365 474.676 413.538 474.676 428.326C474.676 443.099 455.231 457.272 464.848 467.711H537.368Z" fill="white" stroke="black" stroke-width="9.82399" stroke-miterlimit="1.5" stroke-linecap="round" stroke-linejoin="round"/>
<path fill-rule="evenodd" clip-rule="evenodd" d="M570.888 618.426C586.285 596.514 605.708 566.765 605.708 535.757C605.708 504.717 586.285 474.969 570.888 453.057H454.782C439.386 474.969 470.517 504.717 470.517 535.757C470.517 566.765 439.386 596.514 454.782 618.426H570.888Z" fill="white" stroke="black" stroke-width="9.98794" stroke-miterlimit="1.5" stroke-linecap="round" stroke-linejoin="round"/>
<path d="M357.25 695.18C364.454 695.18 370.294 689.34 370.294 682.137C370.294 674.933 364.454 669.093 357.25 669.093C350.046 669.093 344.207 674.933 344.207 682.137C344.207 689.34 350.046 695.18 357.25 695.18Z" fill="white" stroke="black" stroke-width="10.0102" stroke-miterlimit="1.5" stroke-linecap="round" stroke-linejoin="round"/>
<path d="M407.897 695.18C415.101 695.18 420.941 689.34 420.941 682.137C420.941 674.933 415.101 669.093 407.897 669.093C400.694 669.093 394.854 674.933 394.854 682.137C394.854 689.34 400.694 695.18 407.897 695.18Z" fill="white" stroke="black" stroke-width="10.0102" stroke-miterlimit="1.5" stroke-linecap="round" stroke-linejoin="round"/>
<path d="M458.544 695.18C465.748 695.18 471.588 689.34 471.588 682.137C471.588 674.933 465.748 669.093 458.544 669.093C451.341 669.093 445.501 674.933 445.501 682.137C445.501 689.34 451.341 695.18 458.544 695.18Z" fill="white" stroke="black" stroke-width="10.0102" stroke-miterlimit="1.5" stroke-linecap="round" stroke-linejoin="round"/>
<path d="M509.191 695.18C516.395 695.18 522.235 689.34 522.235 682.137C522.235 674.933 516.395 669.093 509.191 669.093C501.987 669.093 496.148 674.933 496.148 682.137C496.148 689.34 501.987 695.18 509.191 695.18Z" fill="white" stroke="black" stroke-width="10.0102" stroke-miterlimit="1.5" stroke-linecap="round" stroke-linejoin="round"/>
<path d="M559.838 695.18C567.042 695.18 572.882 689.34 572.882 682.137C572.882 674.933 567.042 669.093 559.838 669.093C552.635 669.093 546.795 674.933 546.795 682.137C546.795 689.34 552.635 695.18 559.838 695.18Z" fill="white" stroke="black" stroke-width="10.0102" stroke-miterlimit="1.5" stroke-linecap="round" stroke-linejoin="round"/>
<path d="M285.384 727.085H195.896" stroke="black" stroke-width="10.0102" stroke-miterlimit="1.5" stroke-linecap="round" stroke-linejoin="round"/>
<path d="M345.551 748.3H175.327" stroke="black" stroke-width="10.0102" stroke-miterlimit="1.5" stroke-linecap="round" stroke-linejoin="round"/>
<path d="M671.11 765.32H500.885" stroke="black" stroke-width="10.0102" stroke-miterlimit="1.5" stroke-linecap="round" stroke-linejoin="round"/>
<path d="M586.005 788.226H415.781" stroke="black" stroke-width="10.0102" stroke-miterlimit="1.5" stroke-linecap="round" stroke-linejoin="round"/>
<path d="M456.115 808.451H361.345" stroke="black" stroke-width="10.0102" stroke-miterlimit="1.5" stroke-linecap="round" stroke-linejoin="round"/>
<path d="M862.201 727.085H585.99" stroke="black" stroke-width="10.0102" stroke-miterlimit="1.5" stroke-linecap="round" stroke-linejoin="round"/>
<path d="M748.535 748.3H636.411" stroke="black" stroke-width="10.0102" stroke-miterlimit="1.5" stroke-linecap="round" stroke-linejoin="round"/>
<path d="M240.634 706.616H5.11743" stroke="black" stroke-width="10.0102" stroke-miterlimit="1.5" stroke-linecap="round" stroke-linejoin="round"/>
</svg>
