<svg width="992" height="570" viewBox="0 0 992 570" fill="none" xmlns="http://www.w3.org/2000/svg">
<path d="M803.941 533.807H933.784" stroke="black" stroke-width="9.86259" stroke-miterlimit="1.5" stroke-linecap="round" stroke-linejoin="round"/>
<path d="M803.941 466.783H986.64" stroke="black" stroke-width="9.97641" stroke-miterlimit="1.5" stroke-linecap="round" stroke-linejoin="round"/>
<path d="M803.94 559.997H895.29" stroke="black" stroke-width="9.20657" stroke-miterlimit="1.5" stroke-linecap="round" stroke-linejoin="round"/>
<path d="M901.651 464.697C899.111 452.384 891.983 441.45 887.145 429.372" stroke="black" stroke-width="9.99936" stroke-miterlimit="1.5" stroke-linecap="round" stroke-linejoin="round"/>
<path d="M902.819 462.08C901.602 458.786 915.227 435.914 915.557 435.914" stroke="black" stroke-width="9.99936" stroke-miterlimit="1.5" stroke-linecap="round" stroke-linejoin="round"/>
<path d="M887.773 531.281C889.955 524.833 882.774 512.708 882.774 504.764" stroke="black" stroke-width="9.99936" stroke-miterlimit="1.5" stroke-linecap="round" stroke-linejoin="round"/>
<path d="M889.583 531.271C882.673 522.626 903.4 504.006 908.131 499.287" stroke="black" stroke-width="9.99936" stroke-miterlimit="1.5" stroke-linecap="round" stroke-linejoin="round"/>
<path d="M882.773 534.581C882.883 528.881 858.33 518.02 858.753 518.02" stroke="black" stroke-width="9.96868" stroke-miterlimit="1.5" stroke-linecap="round" stroke-linejoin="round"/>
<path d="M95.8056 482.055C94.9762 470.981 92.217 461.286 89.1471 448.997" stroke="black" stroke-width="9.99936" stroke-miterlimit="1.5" stroke-linecap="round" stroke-linejoin="round"/>
<path d="M98.5579 483.363C104.534 461.005 116.466 442.595 116.466 417.316" stroke="black" stroke-width="9.99936" stroke-miterlimit="1.5" stroke-linecap="round" stroke-linejoin="round"/>
<path d="M39.3354 483.824H169.179" stroke="black" stroke-width="9.86259" stroke-miterlimit="1.5" stroke-linecap="round" stroke-linejoin="round"/>
<path d="M5.91724 518.364H185.826" stroke="black" stroke-width="9.98381" stroke-miterlimit="1.5" stroke-linecap="round" stroke-linejoin="round"/>
<path d="M104.26 533.807H200.413" stroke="black" stroke-width="9.33054" stroke-miterlimit="1.5" stroke-linecap="round" stroke-linejoin="round"/>
<path d="M803.94 489.09H856.332" stroke="black" stroke-width="7.60047" stroke-miterlimit="1.5" stroke-linecap="round" stroke-linejoin="round"/>
<path fill-rule="evenodd" clip-rule="evenodd" d="M297.11 331.598V225.974C300.663 221.535 305.682 216.535 311.84 213.825C311.962 213.708 337.016 217.072 338.014 218.077C343.453 223.521 334.956 241.487 339.974 246.51C342.803 249.336 353.894 244.641 357.613 246.51C361.942 248.659 366.159 255.668 373.294 259.243C376.486 260.831 384.298 247.701 388.973 252.374C393.949 257.35 392.471 261.976 398.774 265.13C402.914 267.186 400.963 275.153 403.673 277.863C414.196 288.376 427.216 300.455 434.052 314.122C434.601 315.22 435.4 316.879 436.991 316.085C445.596 311.786 441.496 289.03 446.792 283.75C451.446 279.078 458.775 271.765 464.431 266.111C468.456 262.069 473.007 276.017 479.131 272.957C489.654 267.7 503.167 262.654 509.51 256.299C510.033 255.785 510.734 253.495 512.449 254.336C514.911 255.574 521.322 266.041 523.229 264.149C529.602 257.771 528.044 246.58 534.008 240.622C538.807 235.833 555.558 240.132 562.429 236.697C568.331 233.753 574.209 209.76 590.848 218.077C595.659 220.483 591.266 242.024 594.768 245.528C599.046 249.804 611.543 243.683 615.347 247.491C618.477 250.622 624.82 242.912 626.126 241.603C630.21 237.515 624.003 223.147 628.086 219.058C630.68 216.465 656.879 216.488 659.447 219.058C664.25 223.871 658.388 242.515 663.365 247.491C668.638 252.748 682.431 246.533 687.931 249.734V265.597C685.228 273.728 681.772 282.559 685.905 286.671C686.655 287.442 687.321 288.142 687.931 288.797V544.879H297.11V372.553C302.016 375.357 306.677 379.071 309.41 380.426C310.49 380.964 312.375 379.889 313.455 380.426C315.183 381.291 315.088 386.641 316.487 388.51C318.445 391.127 321.886 393.907 323.564 395.589C324.9 396.944 323.989 404.537 325.08 406.71C327.11 410.775 337.979 417.2 342.266 419.349C344.581 420.517 351.782 430.049 352.375 429.465C359.774 422.059 348.387 404.35 345.803 396.593C345.217 394.841 347.114 392.365 345.803 391.056C341.49 386.734 335.458 386.034 333.166 378.417C332.629 376.618 332.019 373.558 333.166 371.829C333.57 371.245 335.862 370.497 335.694 370.31C333.07 367.693 326.103 369.329 323.057 366.268C319.809 363.021 323.059 358.442 321.54 354.657C318.368 346.714 308.205 341.831 302.334 335.943C300.696 334.308 298.944 332.883 297.11 331.598Z" fill="white" stroke="black" stroke-width="9.99936" stroke-miterlimit="1.5" stroke-linecap="round" stroke-linejoin="round"/>
<path fill-rule="evenodd" clip-rule="evenodd" d="M447.648 457.585C447.805 446.713 467.853 437.904 492.523 437.904C517.292 437.904 537.401 446.78 537.401 457.719V544.894H447.648V457.719V457.585Z" fill="white" stroke="black" stroke-width="8.59309" stroke-miterlimit="1.5" stroke-linecap="round" stroke-linejoin="round"/>
<path fill-rule="evenodd" clip-rule="evenodd" d="M806.39 5.71704V561.102H661.502V178.907C668.127 176.921 679.286 179.327 683.86 174.772C691.329 167.296 676.414 154.61 682.659 148.348C684.841 146.176 701.721 94.7767 704.265 87.137C707.398 77.7451 689.458 49.1256 699.464 39.1262C705.905 32.6781 731.334 46.8593 733.074 45.1304C745.954 32.234 748.157 62.4423 758.281 52.3261C760.762 49.8496 761.881 47.9339 761.881 42.724C761.881 34.1731 773.009 42.5606 782.288 37.9347C786.111 36.0189 781.917 19.4545 784.688 13.9175C786.625 10.0392 792.886 15.8099 796.692 13.9175C801.103 11.7214 803.885 8.82432 806.39 5.71704Z" fill="white" stroke="black" stroke-width="9.99936" stroke-miterlimit="1.5" stroke-linecap="round" stroke-linejoin="round"/>
<path d="M804.012 273.4C804.353 274.265 801.846 281.25 800.816 283.306C798.099 288.75 796.664 294.334 792.971 298.025C790.702 300.291 785.59 298.048 783.654 299.987C781.014 302.628 776.925 304.614 774.336 309.8C771.505 315.454 768.645 317.743 766.001 323.023C764.914 325.196 765.22 331.154 763.55 332.836C761.9 334.495 752.761 338.583 752.761 341.667" stroke="black" stroke-width="9.99936" stroke-miterlimit="1.5" stroke-linecap="round" stroke-linejoin="round"/>
<path d="M800.255 450.936C798.136 451.286 794.193 455.305 791.99 456.403C785.815 459.487 780.579 461.87 773.846 465.234" stroke="black" stroke-width="9.99936" stroke-miterlimit="1.5" stroke-linecap="round" stroke-linejoin="round"/>
<path d="M353.681 429.349C343.819 423.087 363.033 441.848 365.248 442.408C367.488 442.969 372.233 441.918 374.329 442.969C377.915 444.768 378.544 452.291 380.572 454.324C382.368 456.099 387.099 454.604 388.518 456.006C390.123 457.618 391.877 460.538 394.192 461.706C396.379 462.781 399.87 460.071 399.87 463.389" stroke="black" stroke-width="9.99936" stroke-miterlimit="1.5" stroke-linecap="round" stroke-linejoin="round"/>
<path d="M471.26 441.053C471.949 443.647 470.052 451.239 470.052 454.954C470.052 465.467 471.36 475.771 471.36 486.401" stroke="black" stroke-width="9.99936" stroke-miterlimit="1.5" stroke-linecap="round" stroke-linejoin="round"/>
<path d="M488.2 441.147C488.794 441.988 487.364 446.637 487.957 448.413C490.527 456.122 488.831 469.603 488.831 477.242" stroke="black" stroke-width="9.99936" stroke-miterlimit="1.5" stroke-linecap="round" stroke-linejoin="round"/>
<path d="M451.074 468.692C451.719 469.509 463.541 464.113 465.246 463.272C467.279 462.244 472.113 463.832 473.545 462.384C477.907 458.015 495.361 458.459 502.37 458.459" stroke="black" stroke-width="9.99936" stroke-miterlimit="1.5" stroke-linecap="round" stroke-linejoin="round"/>
<path d="M449.574 489.111C457.66 487.569 465.087 478.551 474.419 478.551" stroke="black" stroke-width="9.99936" stroke-miterlimit="1.5" stroke-linecap="round" stroke-linejoin="round"/>
<path fill-rule="evenodd" clip-rule="evenodd" d="M169.181 497.148V337.345C172.368 336.037 175.72 334.822 179.237 333.63C184.806 331.785 188.923 337.158 194.182 335.406C197.006 334.448 226.911 320.921 227.591 319.566C235.67 303.422 177.687 285.502 192.778 270.41C194.829 268.354 200.929 260.598 202.095 262.42C206.756 269.709 215.311 263.214 215.951 263.845C217.419 265.317 226.058 269.125 230.229 271.228C232.214 272.209 239.317 270.924 240.777 269.452C242.45 267.793 238.852 262.583 239.898 261.555C243.027 258.425 253.846 260.784 257.481 257.14C258.577 256.065 243.854 236.487 245.174 235.179C247.232 233.123 275.326 224.361 276.824 222.866C277.728 221.955 275.602 215.904 273.756 211.302L311.263 168.267V564.644H202.216C201.777 560.789 201.265 557.681 200.828 556.817C199.2 553.57 194.803 554.224 193.259 551.14C193.158 550.953 203.726 541.724 201.775 539.785C198.88 536.888 197.707 531.935 194.205 528.431C191.208 525.44 183.951 526.679 180.954 523.688C180.33 523.081 208.48 502.007 198.936 492.475C195.34 488.877 180.059 501.19 169.181 497.148Z" fill="white" stroke="black" stroke-width="9.99936" stroke-miterlimit="1.5" stroke-linecap="round" stroke-linejoin="round"/>
<path d="M116.789 443.787C116.902 441.357 125.744 438.25 128.293 435.703C132.814 431.194 133.319 425.213 138.136 420.4" stroke="black" stroke-width="9.99936" stroke-miterlimit="1.5" stroke-linecap="round" stroke-linejoin="round"/>
</svg>
