<svg width="877" height="902" viewBox="0 0 877 902" fill="none" xmlns="http://www.w3.org/2000/svg">
<path fill-rule="evenodd" clip-rule="evenodd" d="M360.481 896.185H173.609L220.325 487.25H313.763L360.481 896.185Z" fill="white" stroke="black" stroke-width="10.0102" stroke-miterlimit="1.5" stroke-linecap="round" stroke-linejoin="round"/>
<path fill-rule="evenodd" clip-rule="evenodd" d="M685.708 896.185H498.836L545.552 487.25H638.989L685.708 896.185Z" fill="white" stroke="black" stroke-width="10.0102" stroke-miterlimit="1.5" stroke-linecap="round" stroke-linejoin="round"/>
<path fill-rule="evenodd" clip-rule="evenodd" d="M562.798 896.185H297.163L363.572 307.443H496.389L562.798 896.185Z" fill="white" stroke="black" stroke-width="10.0102" stroke-miterlimit="1.5" stroke-linecap="round" stroke-linejoin="round"/>
<path fill-rule="evenodd" clip-rule="evenodd" d="M321.643 169.959L538.303 169.959L496.992 307.437H362.861L321.643 169.959Z" fill="white" stroke="black" stroke-width="10.0102" stroke-miterlimit="1.5" stroke-linecap="round" stroke-linejoin="round"/>
<path fill-rule="evenodd" clip-rule="evenodd" d="M350.265 5.07471L378.877 169.966H321.65L350.265 5.07471Z" fill="white" stroke="black" stroke-width="10.0102" stroke-miterlimit="1.5" stroke-linecap="round" stroke-linejoin="round"/>
<path fill-rule="evenodd" clip-rule="evenodd" d="M429.981 5.07471L458.594 169.966H401.367L429.981 5.07471Z" fill="white" stroke="black" stroke-width="10.0102" stroke-miterlimit="1.5" stroke-linecap="round" stroke-linejoin="round"/>
<path fill-rule="evenodd" clip-rule="evenodd" d="M509.699 5.07471L538.311 169.966H481.084L509.699 5.07471Z" fill="white" stroke="black" stroke-width="10.0102" stroke-miterlimit="1.5" stroke-linecap="round" stroke-linejoin="round"/>
<path fill-rule="evenodd" clip-rule="evenodd" d="M455.921 814.791C455.921 800.473 444.308 788.86 429.983 788.86H429.979C415.654 788.86 404.042 800.473 404.042 814.791V896.188H455.921V814.791Z" fill="white" stroke="black" stroke-width="10.0016" stroke-miterlimit="1.5" stroke-linecap="round" stroke-linejoin="round"/>
<path fill-rule="evenodd" clip-rule="evenodd" d="M267.045 263.604L325.6 487.25H208.491L267.045 263.604Z" fill="white" stroke="black" stroke-width="10.0102" stroke-miterlimit="1.5" stroke-linecap="round" stroke-linejoin="round"/>
<path fill-rule="evenodd" clip-rule="evenodd" d="M592.27 263.604L650.825 487.25H533.716L592.27 263.604Z" fill="white" stroke="black" stroke-width="10.0102" stroke-miterlimit="1.5" stroke-linecap="round" stroke-linejoin="round"/>
<path fill-rule="evenodd" clip-rule="evenodd" d="M277.883 544.181C277.883 541.306 276.742 538.55 274.71 536.517C272.677 534.484 269.921 533.34 267.047 533.34H267.045C264.171 533.34 261.415 534.484 259.382 536.517C257.351 538.55 256.209 541.306 256.209 544.181C256.209 562.255 256.209 596.582 256.209 596.582H277.883V544.181Z" fill="white" stroke="black" stroke-width="9.9986" stroke-miterlimit="1.5" stroke-linecap="round" stroke-linejoin="round"/>
<path fill-rule="evenodd" clip-rule="evenodd" d="M277.883 639.328C277.883 636.453 276.742 633.697 274.71 631.664C272.677 629.632 269.921 628.487 267.047 628.487H267.045C264.171 628.487 261.415 629.632 259.382 631.664C257.351 633.697 256.209 636.453 256.209 639.328C256.209 657.403 256.209 691.729 256.209 691.729H277.883V639.328Z" fill="white" stroke="black" stroke-width="9.9986" stroke-miterlimit="1.5" stroke-linecap="round" stroke-linejoin="round"/>
<path fill-rule="evenodd" clip-rule="evenodd" d="M603.107 639.328C603.107 636.453 601.965 633.697 599.934 631.664C597.901 629.632 595.145 628.487 592.271 628.487H592.269C589.395 628.487 586.639 629.632 584.606 631.664C582.574 633.697 581.433 636.453 581.433 639.328C581.433 657.403 581.433 691.729 581.433 691.729H603.107V639.328Z" fill="white" stroke="black" stroke-width="9.9986" stroke-miterlimit="1.5" stroke-linecap="round" stroke-linejoin="round"/>
<path fill-rule="evenodd" clip-rule="evenodd" d="M603.107 544.181C603.107 541.306 601.965 538.55 599.934 536.517C597.901 534.484 595.145 533.34 592.271 533.34H592.269C589.395 533.34 586.639 534.484 584.606 536.517C582.574 538.55 581.433 541.306 581.433 544.181C581.433 562.255 581.433 596.582 581.433 596.582H603.107V544.181Z" fill="white" stroke="black" stroke-width="9.9986" stroke-miterlimit="1.5" stroke-linecap="round" stroke-linejoin="round"/>
<path fill-rule="evenodd" clip-rule="evenodd" d="M440.819 639.328C440.819 636.453 439.677 633.697 437.645 631.664C435.612 629.632 432.856 628.487 429.982 628.487H429.98C427.106 628.487 424.35 629.632 422.317 631.664C420.286 633.697 419.144 636.453 419.144 639.328C419.144 657.403 419.144 691.729 419.144 691.729H440.819V639.328Z" fill="white" stroke="black" stroke-width="9.9986" stroke-miterlimit="1.5" stroke-linecap="round" stroke-linejoin="round"/>
<path fill-rule="evenodd" clip-rule="evenodd" d="M440.819 549.412C440.819 546.537 439.677 543.781 437.645 541.748C435.612 539.716 432.856 538.571 429.982 538.571H429.98C427.106 538.571 424.35 539.716 422.317 541.748C420.286 543.781 419.144 546.537 419.144 549.412C419.144 567.487 419.144 601.813 419.144 601.813H440.819V549.412Z" fill="white" stroke="black" stroke-width="9.9986" stroke-miterlimit="1.5" stroke-linecap="round" stroke-linejoin="round"/>
<path fill-rule="evenodd" clip-rule="evenodd" d="M440.819 458.013C440.819 455.138 439.677 452.382 437.645 450.349C435.612 448.316 432.856 447.172 429.982 447.172H429.98C427.106 447.172 424.35 448.316 422.317 450.349C420.286 452.382 419.144 455.138 419.144 458.013C419.144 476.087 419.144 510.414 419.144 510.414H440.819V458.013Z" fill="white" stroke="black" stroke-width="9.9986" stroke-miterlimit="1.5" stroke-linecap="round" stroke-linejoin="round"/>
<path d="M685.708 876.132H871.822" stroke="black" stroke-width="10.0102" stroke-miterlimit="1.5" stroke-linecap="round" stroke-linejoin="round"/>
<path d="M46.2332 876.132H171.16" stroke="black" stroke-width="10.0102" stroke-miterlimit="1.5" stroke-linecap="round" stroke-linejoin="round"/>
<path d="M128.906 805.115H181.947" stroke="black" stroke-width="10.0102" stroke-miterlimit="1.5" stroke-linecap="round" stroke-linejoin="round"/>
<path d="M5.39038 828.573H179.432" stroke="black" stroke-width="10.0102" stroke-miterlimit="1.5" stroke-linecap="round" stroke-linejoin="round"/>
<path d="M678.162 814.989H781.308" stroke="black" stroke-width="10.0102" stroke-miterlimit="1.5" stroke-linecap="round" stroke-linejoin="round"/>
<path d="M685.708 857.13H738.55" stroke="black" stroke-width="10.0102" stroke-miterlimit="1.5" stroke-linecap="round" stroke-linejoin="round"/>
</svg>
