<svg width="894" height="531" viewBox="0 0 894 531" fill="none" xmlns="http://www.w3.org/2000/svg">
<path fill-rule="evenodd" clip-rule="evenodd" d="M777.874 520.182C777.874 520.182 776.935 521.623 767.745 523.485C758.555 525.367 761.085 526.107 744.851 523.485C728.615 520.863 697.483 509.913 680.775 503.768C664.068 497.602 644.091 504.228 625.809 506.21C607.527 508.212 573.299 498.423 549.486 498.023C525.671 497.622 527.847 496.922 516.513 496.521C505.177 496.121 488.321 496.481 479.437 493.118C470.553 489.776 456.609 490.456 444.725 495.741C432.842 501.005 427.353 499.164 416.754 497.602C406.157 496.021 392.291 486.212 378.172 492.157C364.054 498.103 354.226 496.802 335.611 501.185C316.997 505.549 298.301 506.79 281.454 506.71C264.609 506.65 252.643 506.79 227.731 508.912C202.819 511.014 202.931 513.556 187.037 513.596C171.144 513.636 141.69 505.389 141.69 505.389C129.737 503.187 107.252 500.144 107.252 500.144C107.252 500.144 111.369 491.057 113.932 486.793C127.203 464.674 135.871 437.77 141.984 413.309C149.23 384.323 148.37 358.841 170.039 337.162C170.353 336.862 171.059 336.862 171.376 337.162C186.483 352.275 206.274 338.343 218.131 326.473C226.936 317.665 218.002 297.207 227.483 287.739C233.004 282.214 247.694 284.716 254.2 271.705C276.858 226.405 246.039 178.223 279.911 144.354C282.329 141.931 285.582 130.722 303.759 125.958C308.924 124.616 321.341 130.682 326.732 135.486C348.068 154.563 333.231 165.612 361.073 179.524C366.855 182.427 379.167 150.379 381.111 147.476C395.968 125.177 377.948 120.333 392.713 101.876C407.458 83.4403 406.777 73.4717 410.683 53.9346C413.251 41.1034 428.458 34.3575 432.134 23.3278C439.874 0.10752 476.488 3.59053 482.988 10.0362C546.594 73.0512 509.911 84.8415 542.754 134.105C551.716 147.556 566.745 126.518 579.847 146.195C608.614 189.413 585.602 213.114 598.863 239.637C599.846 241.619 600.635 241.418 601.536 242.319C607.871 248.645 614.297 233.331 621.573 236.974C630.541 241.458 633.135 245.862 638.94 251.667C645.784 258.513 634.224 276.97 638.94 286.398C644.341 297.207 664.905 299.589 672.337 314.462C677.21 324.191 663.72 332.678 666.995 342.507C670.061 351.715 680.951 357.52 683.025 367.889C685.539 380.46 682.592 395.553 685.697 407.964C688.7 419.995 714.694 462.351 721.767 469.418C729.692 477.345 742.737 475.303 748.484 486.793C752.155 494.139 752.652 508.312 756.499 512.175C760.23 515.898 772.387 514.697 777.874 520.182Z" fill="white" stroke="black" stroke-width="10.0087" stroke-miterlimit="1.5" stroke-linecap="round" stroke-linejoin="round"/>
<path d="M363.043 180.245C357.328 186.23 343.41 202.824 336.416 206.327C332.699 208.169 329.806 204.106 327.196 202.804C324.125 201.263 319.117 203.205 315.782 202.364C314.803 202.124 310.301 200.602 309.635 201.923C308.381 204.426 309.204 208.489 308.317 211.152C306.584 216.356 302.833 220.36 300.414 225.204C298.122 229.788 297.692 235.473 295.586 239.676C293.062 244.741 285.704 247.483 282.415 252.428C280.413 255.43 282.233 259.814 280.659 262.957C276.508 271.264 271.307 269.823 264.853 273.046C258.57 276.188 252.252 277.069 244.476 280.833" stroke="black" stroke-width="10.0087" stroke-miterlimit="1.5" stroke-linecap="round" stroke-linejoin="round"/>
<path d="M240.58 505.329C257.029 496.881 285.161 481.568 288.748 476.784C307.623 451.622 298.493 424.318 311.524 398.255C315.209 390.889 328.923 385.444 333.513 376.256C338.682 365.927 336.042 345.949 347.652 340.144C355.316 336.301 370.129 350.954 372.784 345.629C377.61 335.981 386.336 311.759 397.131 306.375C399.789 305.034 415.561 302.491 416.764 300.089C420.998 291.622 422.093 275.027 431.687 270.243C460.262 255.951 468.573 303.993 480.382 315.783C482.283 317.685 488.223 313.681 492.162 315.002C496.756 316.543 505.53 327.613 507.085 332.277C508.973 337.942 497.685 352.735 501.586 356.619C504.038 359.081 513.627 353.836 517.294 355.057C519.192 355.698 545.841 387.526 549.494 391.189C565.024 406.722 560.692 434.006 569.914 452.442C572.656 457.927 583.274 458.347 587.193 464.233C596.771 478.605 602.703 492.297 615.468 505.068" stroke="black" stroke-width="10.0087" stroke-miterlimit="1.5" stroke-linecap="round" stroke-linejoin="round"/>
<path fill-rule="evenodd" clip-rule="evenodd" d="M359.502 493.999C352.892 499.163 362.863 471.959 365.055 470.238C374.836 462.631 378.791 446.577 384.538 435.067C388.367 427.421 396.176 413.028 397.916 409.545C401.777 401.818 407.454 390.068 411.063 386.465C420.638 376.896 422.005 373.774 443.468 368.409C458.471 364.666 461.726 391.669 467.713 400.657C472.661 408.063 479.007 421.535 480.546 426.44C484.375 438.67 488.913 436.448 491.229 441.092C493.045 444.715 498.908 449.72 500.694 453.303C506.072 464.052 505.824 481.308 515.186 494.539L486.047 491.436L465.885 483.389L428.024 497.281L401.349 488.574L384.77 486.352L359.502 493.999Z" fill="black" stroke="black" stroke-width="10.0087" stroke-miterlimit="1.5" stroke-linecap="round" stroke-linejoin="round"/>
<path d="M133.22 442.934C133.1 443.254 130.438 444.255 129.809 444.876C123.72 450.961 119.448 452.723 110.831 452.723C101.296 452.723 90.2268 452.142 81.1269 453.964C78.7628 454.424 77.6298 457.327 75.3498 458.087C72.9978 458.868 70.5776 456.846 68.3357 456.846C64.5063 456.846 59.3879 457.667 54.3094 457.667" stroke="black" stroke-width="10.0087" stroke-miterlimit="1.5" stroke-linecap="round" stroke-linejoin="round"/>
<path d="M142.513 400.657C137.826 401.198 135.022 405.301 130.222 406.102C126.33 406.742 117.393 409.785 113.719 408.564C109.886 407.283 106.735 406.422 102.167 407.323C97.4172 408.284 92.8752 411.947 88.1391 413.529C82.2599 415.49 73.7605 417.172 67.511 418.053C59.1437 419.254 49.6534 417.232 41.108 417.232C33.113 417.232 23.5006 419.233 15.5276 417.652C11.6883 416.871 9.35021 413.929 5.2146 413.929" stroke="black" stroke-width="10.0087" stroke-miterlimit="1.5" stroke-linecap="round" stroke-linejoin="round"/>
<path d="M155.89 355.558C154.781 355.097 153.807 358.6 152.501 359.481C149.645 361.383 145.439 361.142 142.186 361.543C131.089 362.924 124.857 357.419 114.957 364.005" stroke="black" stroke-width="10.0087" stroke-miterlimit="1.5" stroke-linecap="round" stroke-linejoin="round"/>
<path d="M537.209 125.237C537.424 124.736 542.424 135.526 542.874 135.986C545.116 138.228 546.137 138.909 547.294 141.811C548.707 145.334 551.478 148.537 552.645 152.04C553.826 155.583 550.495 159.867 553.344 163.67C558.048 169.936 566.277 174.359 568 182.987C569.804 191.995 565.862 200.763 568.931 209.971C569.496 211.652 571.129 211.792 572.422 212.753C575.667 215.195 581.766 218.518 583.822 221.601C585.306 223.823 585.013 226.785 586.148 229.047C587.69 232.13 593.104 235.072 595.921 236.954C596.876 237.595 601.53 242.619 601.916 242.619" stroke="black" stroke-width="10.0087" stroke-miterlimit="1.5" stroke-linecap="round" stroke-linejoin="round"/>
<path d="M115.125 496.381C113.869 496.481 111.425 497.141 111.425 497.141C111.425 497.141 116.58 496.14 118.335 494.379C122.507 490.215 126.729 484.811 131.463 481.247C142.697 472.82 159.057 481.548 170.155 466.735C177.563 456.866 181.553 444.636 186.735 434.266C192.518 422.716 206.729 419.474 214.373 408.024C217.644 403.099 215.372 397.034 217.828 392.13C222.965 381.841 235.89 370.351 243.391 360.342" stroke="black" stroke-width="10.0087" stroke-miterlimit="1.5" stroke-linecap="round" stroke-linejoin="round"/>
<path d="M267.624 398.295C267.258 393.451 282.873 381.08 284.847 374.154C288.574 361.123 281.99 356.579 283.466 350.673C286.448 338.743 304.026 325.972 312.483 317.504C322.476 307.516 326.173 292.483 333.902 280.892C340.283 271.324 354.67 270.804 362.231 259.474" stroke="black" stroke-width="10.0087" stroke-miterlimit="1.5" stroke-linecap="round" stroke-linejoin="round"/>
<path d="M360.649 224.263C356.744 219.599 364.276 214.815 367.757 212.493C379.207 204.846 391.924 198.28 402.994 190.373C420.185 178.102 410.609 171.937 419.577 159.967C427.648 149.217 437.138 141.571 445.141 129.58" stroke="black" stroke-width="10.0087" stroke-miterlimit="1.5" stroke-linecap="round" stroke-linejoin="round"/>
<path d="M466.037 190.954C462.688 194.077 463.387 220.18 469.324 222.161C474.368 223.843 479.473 222.402 484.523 224.924C501.046 233.191 518.998 254.27 522.525 271.905" stroke="black" stroke-width="10.0087" stroke-miterlimit="1.5" stroke-linecap="round" stroke-linejoin="round"/>
<path d="M539.121 212.813C538.961 217.197 547.555 222.942 550.161 226.305C557.902 236.253 565.594 247.403 572.27 258.093C581.787 273.306 570.901 285.076 575.725 299.549C580.073 312.58 602.825 315.382 613.036 323.029C619.806 328.114 619.011 338.203 621.327 345.149C623.355 351.234 633.372 357.539 638.6 361.042" stroke="black" stroke-width="10.0087" stroke-miterlimit="1.5" stroke-linecap="round" stroke-linejoin="round"/>
<path d="M565.2 347.05C572.334 360.002 576.608 376.136 586.09 387.986C591.583 394.852 602.116 392.31 608.2 400.417C615.726 410.446 609.411 426.079 615.8 435.648C619.634 441.413 630.619 443.555 635.836 448.779" stroke="black" stroke-width="10.0087" stroke-miterlimit="1.5" stroke-linecap="round" stroke-linejoin="round"/>
<path d="M502.631 393.271C501.33 401.718 497.481 412.788 502.487 421.135C508.088 430.483 519.186 432.625 523.906 443.255C527.015 450.241 526.098 464.733 532.888 468.136" stroke="black" stroke-width="10.0087" stroke-miterlimit="1.5" stroke-linecap="round" stroke-linejoin="round"/>
<path d="M448.556 327.834C444.905 328.014 434.42 315.103 434.087 315.443C422.699 326.813 413.205 343.808 402.304 356.879C398.6 361.323 387.567 363.785 385.721 369.33C382.596 378.698 384.866 391.289 378.122 399.717C370.346 409.445 365.119 402.779 357.394 406.643C353.555 408.544 340.532 442.434 338.047 447.398" stroke="black" stroke-width="10.0087" stroke-miterlimit="1.5" stroke-linecap="round" stroke-linejoin="round"/>
<path d="M466.862 46.4679C464.154 42.004 474.184 41.1431 477.615 41.8237C485.054 43.325 485.907 57.8779 485.907 63.2426C485.907 76.0538 491.253 82.3792 493.505 93.649C495.943 105.84 495.375 123.055 502.487 133.724C506.523 139.769 512.844 142.692 516.307 149.618" stroke="black" stroke-width="10.0087" stroke-miterlimit="1.5" stroke-linecap="round" stroke-linejoin="round"/>
<path d="M286.09 196.479C285.718 188.692 289.247 180.885 290.039 178.763C292.065 173.359 294.091 170.116 294.391 161.328C294.419 160.508 299.356 153.762 299.356 153.762C299.356 153.762 307.629 150.159 311.792 150.999C316.234 151.88 318.168 157.685 319.393 161.348" stroke="black" stroke-width="10.0087" stroke-miterlimit="1.5" stroke-linecap="round" stroke-linejoin="round"/>
<path d="M684.26 381.3C684.148 380.419 686.932 379.178 687.693 378.838C689.931 377.857 698.226 375.795 700.786 376.436C702.796 376.936 704.378 378.998 706.666 379.379C718.152 381.28 727.646 379.659 738.463 377.497C744.717 376.256 752.626 377.697 758.773 378.578C763.091 379.198 767.919 377.017 772.135 376.176" stroke="black" stroke-width="10.0087" stroke-miterlimit="1.5" stroke-linecap="round" stroke-linejoin="round"/>
<path d="M703.929 436.449C704.067 437.269 709.19 435.488 711.476 435.488C713.105 435.488 714.614 436.369 716.286 436.028C717.797 435.728 718.924 434.367 720.56 434.687C721.805 434.947 722.249 436.309 723.5 436.569C725.88 437.029 728.767 435.148 730.983 436.028C737.028 438.45 746.088 436.228 752.894 437.369C754.415 437.61 755.17 438.991 756.635 439.231C762.452 440.212 768.554 439.772 774.273 439.772C776.523 439.772 779.385 440.652 781.487 440.292C786.8 439.411 793.359 437.069 798.856 438.17C806.417 439.671 813.831 441.113 821.836 441.113" stroke="black" stroke-width="10.0087" stroke-miterlimit="1.5" stroke-linecap="round" stroke-linejoin="round"/>
<path d="M751.088 485.031C750.234 487.133 753.793 487.173 755.032 487.073C759.598 486.653 763.888 486.272 768.393 486.272C772.201 486.272 775.794 484.651 779.615 485.191C786.085 486.112 794.444 489.775 800.994 488.134C802.627 487.733 803.874 486.152 805.536 485.732C809.399 484.771 815.475 485.191 819.432 485.191" stroke="black" stroke-width="10.0087" stroke-miterlimit="1.5" stroke-linecap="round" stroke-linejoin="round"/>
<path d="M776.607 519.318C778.836 515.42 788.71 521.859 793.479 520.274C817.843 512.15 843.273 528.8 868.903 520.274C875.482 518.061 881.692 524.625 888.636 521.154" stroke="black" stroke-width="10.0102" stroke-miterlimit="1.5" stroke-linecap="round" stroke-linejoin="round"/>
<path d="M110.699 498.996C102.535 499.751 97.2154 507.17 89.4613 510.063C84.1845 512.05 76.9209 515.395 71.4278 516.174C67.7331 516.702 63.8296 515.772 60.1173 516.174C52.5467 517.029 45.3032 520.425 37.8031 521.683C35.3081 522.11 33.0872 520.928 30.7732 520.45C27.3476 519.771 23.8189 521.33 20.3782 520.777C17.267 520.249 12.697 518.136 9.6814 520.148" stroke="black" stroke-width="10.0102" stroke-miterlimit="1.5" stroke-linecap="round" stroke-linejoin="round"/>
</svg>
