<svg width="936" height="907" viewBox="0 0 936 907" fill="none" xmlns="http://www.w3.org/2000/svg">
<path d="M766.74 853.808H930.592" stroke="black" stroke-width="9.999" stroke-miterlimit="1.5" stroke-linecap="round" stroke-linejoin="round"/>
<path d="M139.75 827.047H240.069" stroke="black" stroke-width="9.38235" stroke-miterlimit="1.5" stroke-linecap="round" stroke-linejoin="round"/>
<path d="M4.87793 876.368H240.067" stroke="black" stroke-width="9.72657" stroke-miterlimit="1.5" stroke-linecap="round" stroke-linejoin="round"/>
<path d="M391.554 901.57H526.257" stroke="black" stroke-width="9.88197" stroke-miterlimit="1.5" stroke-linecap="round" stroke-linejoin="round"/>
<path d="M761.608 827.047H855.658" stroke="black" stroke-width="9.22998" stroke-miterlimit="1.5" stroke-linecap="round" stroke-linejoin="round"/>
<path fill-rule="evenodd" clip-rule="evenodd" d="M766.74 881.855L317.117 878.552L340.895 592.818L737.235 599.009L766.74 881.855Z" fill="white" stroke="black" stroke-width="9.99651" stroke-miterlimit="1.5" stroke-linecap="round" stroke-linejoin="round"/>
<path fill-rule="evenodd" clip-rule="evenodd" d="M460.354 793.809C460.451 783.127 472.912 774.472 488.246 774.472C503.642 774.472 516.141 783.193 516.141 793.94V879.594H460.354V793.94V793.809Z" fill="white" stroke="black" stroke-width="9.69271" stroke-miterlimit="1.5" stroke-linecap="round" stroke-linejoin="round"/>
<path fill-rule="evenodd" clip-rule="evenodd" d="M560.821 793.809C560.918 783.127 573.379 774.472 588.713 774.472C604.109 774.472 616.608 783.193 616.608 793.94V879.594H560.821V793.94V793.809Z" fill="white" stroke="black" stroke-width="9.69271" stroke-miterlimit="1.5" stroke-linecap="round" stroke-linejoin="round"/>
<path fill-rule="evenodd" clip-rule="evenodd" d="M659.369 793.809C659.466 783.127 671.927 774.472 687.261 774.472C702.657 774.472 715.156 783.193 715.156 793.94V879.594H659.369V793.94V793.809Z" fill="white" stroke="black" stroke-width="9.69271" stroke-miterlimit="1.5" stroke-linecap="round" stroke-linejoin="round"/>
<path fill-rule="evenodd" clip-rule="evenodd" d="M766.74 617.924H340.895L342.009 494.261H625.163L766.74 617.924Z" fill="white" stroke="black" stroke-width="10.001" stroke-miterlimit="1.5" stroke-linecap="round" stroke-linejoin="round"/>
<path fill-rule="evenodd" clip-rule="evenodd" d="M394.167 901.571H240.068L278.593 299.372H355.641L394.167 901.571Z" fill="white" stroke="black" stroke-width="9.99807" stroke-miterlimit="1.5" stroke-linecap="round" stroke-linejoin="round"/>
<path fill-rule="evenodd" clip-rule="evenodd" d="M308.081 340.024C308.111 335.148 312.08 331.197 316.964 331.197C321.867 331.197 325.848 335.178 325.848 340.082L329.557 373.463H304.679L308.081 340.082V340.024Z" fill="white" stroke="black" stroke-width="10.0003" stroke-miterlimit="1.5" stroke-linecap="round" stroke-linejoin="round"/>
<path fill-rule="evenodd" clip-rule="evenodd" d="M308.081 463.642C308.111 458.766 312.08 454.815 316.964 454.815C321.867 454.815 325.848 458.797 325.848 463.7L329.557 497.081H304.679L308.081 463.7V463.642Z" fill="white" stroke="black" stroke-width="10.0003" stroke-miterlimit="1.5" stroke-linecap="round" stroke-linejoin="round"/>
<path fill-rule="evenodd" clip-rule="evenodd" d="M308.081 609.293C308.111 604.417 312.08 600.467 316.964 600.467C321.867 600.467 325.848 604.448 325.848 609.351L329.557 642.733H304.679L308.081 609.351V609.293Z" fill="white" stroke="black" stroke-width="10.0003" stroke-miterlimit="1.5" stroke-linecap="round" stroke-linejoin="round"/>
<path fill-rule="evenodd" clip-rule="evenodd" d="M317.117 5.20752L376.659 299.372H257.574L317.117 5.20752Z" fill="white" stroke="black" stroke-width="9.99651" stroke-miterlimit="1.5" stroke-linecap="round" stroke-linejoin="round"/>
<path d="M623.421 426.067H595.458V492.849H623.421V426.067Z" fill="white" stroke="black" stroke-width="9.13376" stroke-miterlimit="1.5" stroke-linecap="round" stroke-linejoin="round"/>
</svg>
