<svg width="777" height="521" viewBox="0 0 777 521" fill="none" xmlns="http://www.w3.org/2000/svg">
<path d="M574.807 424.533H725.332" stroke="black" stroke-width="9.9938" stroke-miterlimit="1.5" stroke-linecap="round" stroke-linejoin="round"/>
<path d="M576.682 319.363H771.471" stroke="black" stroke-width="9.9938" stroke-miterlimit="1.5" stroke-linecap="round" stroke-linejoin="round"/>
<path d="M139.043 387.719H289.568" stroke="black" stroke-width="9.9938" stroke-miterlimit="1.5" stroke-linecap="round" stroke-linejoin="round"/>
<path d="M59.4976 424.533L73.1057 455.368H5.75293H289.568" stroke="black" stroke-width="9.9938" stroke-miterlimit="1.5" stroke-linecap="round" stroke-linejoin="round"/>
<path fill-rule="evenodd" clip-rule="evenodd" d="M289.568 260.287H574.807V469.213C574.807 494.57 510.9 515.15 432.187 515.15C353.474 515.15 289.568 494.57 289.568 469.213V260.287Z" fill="white" stroke="black" stroke-width="9.99635" stroke-miterlimit="1.5" stroke-linecap="round" stroke-linejoin="round"/>
<path fill-rule="evenodd" clip-rule="evenodd" d="M259.011 260.287C360.461 295.362 474.153 299.774 605.363 260.287C605.457 257.956 605.503 255.626 605.503 253.28C605.503 178.973 432.187 5.58057 432.187 5.58057C432.187 5.58057 258.871 178.973 258.871 253.28C258.871 255.626 258.918 257.956 259.011 260.287Z" fill="white" stroke="black" stroke-width="9.99635" stroke-miterlimit="1.5" stroke-linecap="round" stroke-linejoin="round"/>
<path d="M75.0215 455.362L89.1102 387.718" stroke="black" stroke-width="9.99635" stroke-miterlimit="1.5" stroke-linecap="round" stroke-linejoin="round"/>
<path d="M75.0215 455.362L107.14 424.538" stroke="black" stroke-width="9.99635" stroke-miterlimit="1.5" stroke-linecap="round" stroke-linejoin="round"/>
<path d="M197.868 387.718L185.389 366.465" stroke="black" stroke-width="9.99635" stroke-miterlimit="1.5" stroke-linecap="round" stroke-linejoin="round"/>
<path d="M720.592 319.361L708.113 298.108" stroke="black" stroke-width="9.99635" stroke-miterlimit="1.5" stroke-linecap="round" stroke-linejoin="round"/>
<path d="M197.868 387.718L214.305 350.664" stroke="black" stroke-width="9.99635" stroke-miterlimit="1.5" stroke-linecap="round" stroke-linejoin="round"/>
<path d="M720.592 319.362L737.029 282.308" stroke="black" stroke-width="9.99635" stroke-miterlimit="1.5" stroke-linecap="round" stroke-linejoin="round"/>
<path d="M672.284 424.537L661.987 406.01" stroke="black" stroke-width="9.99635" stroke-miterlimit="1.5" stroke-linecap="round" stroke-linejoin="round"/>
<path d="M672.284 424.537L699.623 396.263" stroke="black" stroke-width="9.99635" stroke-miterlimit="1.5" stroke-linecap="round" stroke-linejoin="round"/>
<path d="M672.284 424.537L667.136 366.465" stroke="black" stroke-width="9.99635" stroke-miterlimit="1.5" stroke-linecap="round" stroke-linejoin="round"/>
<path d="M279.378 265.681C286.207 238.625 297.442 213.399 311.966 189.675" stroke="black" stroke-width="9.99635" stroke-miterlimit="1.5" stroke-linecap="round" stroke-linejoin="round"/>
<path d="M443.507 284.237C444.518 268.348 445.102 252.382 445.412 236.477" stroke="black" stroke-width="9.99635" stroke-miterlimit="1.5" stroke-linecap="round" stroke-linejoin="round"/>
<path d="M401.302 284.237C404.058 260.419 408.488 237.294 412.964 213.755" stroke="black" stroke-width="9.99635" stroke-miterlimit="1.5" stroke-linecap="round" stroke-linejoin="round"/>
<path d="M584.971 264.039C579.715 246.361 574.156 227.464 565.194 211.23C559.368 200.676 551.38 191.184 544.762 181.112" stroke="black" stroke-width="9.99635" stroke-miterlimit="1.5" stroke-linecap="round" stroke-linejoin="round"/>
<path d="M436.463 13.3403C418.068 35.9831 402.087 59.9201 387.22 84.9652" stroke="black" stroke-width="9.99635" stroke-miterlimit="1.5" stroke-linecap="round" stroke-linejoin="round"/>
<path d="M437.712 20.0825C436.79 34.3295 436.576 48.6013 436.391 62.8747" stroke="black" stroke-width="9.99635" stroke-miterlimit="1.5" stroke-linecap="round" stroke-linejoin="round"/>
<path d="M446.458 23.5212C455.668 43.0727 465.609 62.4982 472.005 83.2223" stroke="black" stroke-width="9.99635" stroke-miterlimit="1.5" stroke-linecap="round" stroke-linejoin="round"/>
<path d="M399.157 505.462C399.034 477.496 392.929 431.662 412.84 408.606C427.446 391.692 450.346 391.296 460.656 406.54C475.759 428.863 475.855 467.133 473.43 503.029" stroke="black" stroke-width="9.99635" stroke-miterlimit="1.5" stroke-linecap="round" stroke-linejoin="round"/>
</svg>
