<svg width="932" height="414" viewBox="0 0 932 414" fill="none" xmlns="http://www.w3.org/2000/svg">
<path fill-rule="evenodd" clip-rule="evenodd" d="M543.397 47.3887L798.486 279.392L539.262 307.659L543.397 47.3887Z" fill="white" stroke="black" stroke-width="10.005" stroke-miterlimit="1.5" stroke-linecap="round" stroke-linejoin="round"/>
<path fill-rule="evenodd" clip-rule="evenodd" d="M541.467 47.3955L649.315 295.632L539.26 307.666L541.467 47.3955Z" fill="white" stroke="black" stroke-width="10.005" stroke-miterlimit="1.5" stroke-linecap="round" stroke-linejoin="round"/>
<path fill-rule="evenodd" clip-rule="evenodd" d="M540.623 47.397L549.655 320.611L408.23 282.142L540.623 47.397Z" fill="white" stroke="black" stroke-width="9.65713" stroke-miterlimit="1.5" stroke-linecap="round" stroke-linejoin="round"/>
<path d="M526.702 104.211L498.801 169.894" stroke="black" stroke-width="10.005" stroke-miterlimit="1.5" stroke-linecap="round" stroke-linejoin="round"/>
<path d="M526.702 153.662L512.751 215.121" stroke="black" stroke-width="10.005" stroke-miterlimit="1.5" stroke-linecap="round" stroke-linejoin="round"/>
<path d="M585.761 104.211L681.637 198.072" stroke="black" stroke-width="10.005" stroke-miterlimit="1.5" stroke-linecap="round" stroke-linejoin="round"/>
<path d="M615.162 163.13L668.87 242.315" stroke="black" stroke-width="10.005" stroke-miterlimit="1.5" stroke-linecap="round" stroke-linejoin="round"/>
<path fill-rule="evenodd" clip-rule="evenodd" d="M369.919 47.3887L654.653 352.999L306.21 390.995L369.919 47.3887Z" fill="white" stroke="black" stroke-width="10.0006" stroke-miterlimit="1.5" stroke-linecap="round" stroke-linejoin="round"/>
<path fill-rule="evenodd" clip-rule="evenodd" d="M367.326 47.3984L454.141 374.828L306.207 391.004L367.326 47.3984Z" fill="white" stroke="black" stroke-width="10.0006" stroke-miterlimit="1.5" stroke-linecap="round" stroke-linejoin="round"/>
<path fill-rule="evenodd" clip-rule="evenodd" d="M366.177 47.3833L320.18 408.405L130.08 356.695L366.177 47.3833Z" fill="white" stroke="black" stroke-width="9.65926" stroke-miterlimit="1.5" stroke-linecap="round" stroke-linejoin="round"/>
<path d="M282.958 243.688L245.453 331.978" stroke="black" stroke-width="10.0006" stroke-miterlimit="1.5" stroke-linecap="round" stroke-linejoin="round"/>
<path d="M332.04 166.448L296.832 291.241" stroke="black" stroke-width="10.0006" stroke-miterlimit="1.5" stroke-linecap="round" stroke-linejoin="round"/>
<path d="M414.615 118.634L533.684 271.713" stroke="black" stroke-width="10.0006" stroke-miterlimit="1.5" stroke-linecap="round" stroke-linejoin="round"/>
<path d="M435.681 195.167L505.344 325.638" stroke="black" stroke-width="10.0006" stroke-miterlimit="1.5" stroke-linecap="round" stroke-linejoin="round"/>
<path d="M759.142 238.784L926.168 238.166" stroke="black" stroke-width="10.0006" stroke-miterlimit="1.5" stroke-linecap="round" stroke-linejoin="round"/>
<path d="M53.6596 308.967L164.764 308.293" stroke="black" stroke-width="9.99234" stroke-miterlimit="1.5" stroke-linecap="round" stroke-linejoin="round"/>
<path d="M5.85596 279.518L189.452 278.901" stroke="black" stroke-width="10.0006" stroke-miterlimit="1.5" stroke-linecap="round" stroke-linejoin="round"/>
<path d="M638.385 333.713L759.147 333.267" stroke="black" stroke-width="10.0006" stroke-miterlimit="1.5" stroke-linecap="round" stroke-linejoin="round"/>
<path d="M752.034 308.849L837.305 308.403" stroke="black" stroke-width="10.0006" stroke-miterlimit="1.5" stroke-linecap="round" stroke-linejoin="round"/>
<path d="M238.688 212.812V5.62988" stroke="black" stroke-width="10.0006" stroke-miterlimit="1.5" stroke-linecap="round" stroke-linejoin="round"/>
<path fill-rule="evenodd" clip-rule="evenodd" d="M5.87134 72.6175L142.638 45.5541V99.6826L5.87134 72.6175Z" fill="white" stroke="black" stroke-width="10.0006" stroke-miterlimit="1.5" stroke-linecap="round" stroke-linejoin="round"/>
<path fill-rule="evenodd" clip-rule="evenodd" d="M238.685 5.63576V99.6826L142.641 76.1701V29.1466L238.685 5.63576Z" fill="white" stroke="black" stroke-width="10.0006" stroke-miterlimit="1.5" stroke-linecap="round" stroke-linejoin="round"/>
</svg>
