<svg width="767" height="482" viewBox="0 0 767 482" fill="none" xmlns="http://www.w3.org/2000/svg">
<path d="M589.93 239.057H360.739V476.769H589.93V239.057Z" fill="white" stroke="black" stroke-width="9.06308" stroke-miterlimit="1.5" stroke-linecap="round" stroke-linejoin="round"/>
<path d="M505.193 389.138H445.475V476.769H505.193V389.138Z" fill="white" stroke="black" stroke-width="9.99708" stroke-miterlimit="1.5" stroke-linecap="round" stroke-linejoin="round"/>
<path d="M360.745 166.59H148.839V357.915H360.745V166.59Z" fill="white" stroke="black" stroke-width="8.49487" stroke-miterlimit="1.5" stroke-linecap="round" stroke-linejoin="round"/>
<path d="M297.737 262.253H238.019V349.884H297.737V262.253Z" fill="white" stroke="black" stroke-width="9.99708" stroke-miterlimit="1.5" stroke-linecap="round" stroke-linejoin="round"/>
<path d="M475.333 476.771H761.669" stroke="black" stroke-width="9.99708" stroke-miterlimit="1.5" stroke-linecap="round" stroke-linejoin="round"/>
<path d="M589.931 438.464H649.154" stroke="black" stroke-width="6.29783" stroke-miterlimit="1.5" stroke-linecap="round" stroke-linejoin="round"/>
<path d="M238.025 415.089H360.742" stroke="black" stroke-width="9.99708" stroke-miterlimit="1.5" stroke-linecap="round" stroke-linejoin="round"/>
<path d="M5.66602 357.914H292.002" stroke="black" stroke-width="9.99708" stroke-miterlimit="1.5" stroke-linecap="round" stroke-linejoin="round"/>
<path d="M589.929 34.7014H549.104V144.303H589.929V34.7014Z" fill="white" stroke="black" stroke-width="9.93505" stroke-miterlimit="1.5" stroke-linecap="round" stroke-linejoin="round"/>
<path fill-rule="evenodd" clip-rule="evenodd" d="M428.603 166.589H107.154L221.289 5.17969H314.466L428.603 166.589Z" fill="white" stroke="black" stroke-width="9.90671" stroke-miterlimit="1.5" stroke-linecap="round" stroke-linejoin="round"/>
<path fill-rule="evenodd" clip-rule="evenodd" d="M649.153 239.057H301.515L388.424 95.9448H562.244L649.153 239.057Z" fill="white" stroke="black" stroke-width="9.99708" stroke-miterlimit="1.5" stroke-linecap="round" stroke-linejoin="round"/>
</svg>
