<?xml version="1.0" encoding="UTF-8" standalone="no"?>
<!DOCTYPE svg PUBLIC "-//W3C//DTD SVG 1.1//EN" "http://www.w3.org/Graphics/SVG/1.1/DTD/svg11.dtd">
<svg width="100%" height="100%" viewBox="0 0 3508 4961" version="1.1" xmlns="http://www.w3.org/2000/svg" xmlns:xlink="http://www.w3.org/1999/xlink" xml:space="preserve" xmlns:serif="http://www.serif.com/" style="fill-rule:evenodd;clip-rule:evenodd;stroke-linecap:round;stroke-linejoin:round;stroke-miterlimit:1.5;">
    <g transform="matrix(2.79396,0,0,2.79396,-186.785,259.821)">
        <g transform="matrix(0.453271,0,0,0.236855,-60.741,24.5303)">
            <rect x="630.305" y="700.703" width="180.976" height="359.21" style="fill:white;stroke:black;stroke-width:9.9px;"/>
        </g>
        <g transform="matrix(0.441741,0,0,0.441741,-52.0205,-119.034)">
            <rect x="695.672" y="822.304" width="48.386" height="71.002" style="fill:white;stroke:black;stroke-width:8.1px;"/>
        </g>
        <g transform="matrix(1.65642,0,0,0.70679,-863.909,-221.236)">
            <rect x="611.575" y="545.84" width="45.788" height="96.886" style="fill:white;stroke:black;stroke-width:2.81px;"/>
        </g>
        <g transform="matrix(0.441741,0,0,0.441741,-126.272,-164.448)">
            <rect x="695.672" y="822.304" width="48.386" height="71.002" style="fill:white;stroke:black;stroke-width:8.1px;"/>
        </g>
        <g transform="matrix(0.441741,0,0,0.441741,-135.989,-176.766)">
            <path d="M909.95,1024L1141.95,1024" style="fill:none;stroke:black;stroke-width:8.1px;"/>
        </g>
        <g transform="matrix(0.0913668,0,0,0.441741,223.85,-190.477)">
            <path d="M909.95,1024L1141.95,1024" style="fill:none;stroke:black;stroke-width:11.22px;"/>
        </g>
        <g transform="matrix(0.441741,0,0,0.441741,-279.487,-198.843)">
            <path d="M1042.52,1024L1141.95,1024" style="fill:none;stroke:black;stroke-width:8.1px;"/>
        </g>
        <g transform="matrix(0.441741,0,0,0.441741,-304.09,-219.307)">
            <path d="M909.95,1024L1141.95,1024" style="fill:none;stroke:black;stroke-width:8.1px;"/>
        </g>
        <g transform="matrix(0.441741,0,0,0.373866,-46.8803,-58.9889)">
            <rect x="768" y="471.672" width="33.078" height="104.925" style="fill:white;stroke:black;stroke-width:8.75px;"/>
        </g>
        <g transform="matrix(0.408464,0,0,0.498218,-103.195,-184.545)">
            <path d="M862.849,700.703L581.18,700.703L681.191,584.748L762.837,584.748L862.849,700.703Z" style="fill:white;stroke:black;stroke-width:7.86px;"/>
        </g>
        <g transform="matrix(0.441741,0,0,0.441741,-52.9701,-119.034)">
            <path d="M862.849,700.703L581.18,700.703L651.597,584.748L792.432,584.748L862.849,700.703Z" style="fill:white;stroke:black;stroke-width:8.1px;"/>
        </g>
    </g>
    <g transform="matrix(1.46305,0,0,1.46305,423.656,-603.315)">
        <path d="M393.965,677.574L471.201,808.554L625.674,808.554L702.91,677.574L702.91,638.896L638.358,638.896L638.358,677.574L580.721,677.574L580.721,638.896L516.17,638.896L516.17,677.574L458.516,677.574L458.516,638.896L393.965,638.896L393.965,677.574Z" style="fill:white;stroke:black;stroke-width:6.84px;"/>
        <g transform="matrix(1,0,0,1,0.0988055,0)">
            <rect x="475.416" y="808.554" width="145.861" height="310.441" style="fill:white;stroke:black;stroke-width:6.84px;"/>
        </g>
        <g transform="matrix(1,0,0,1,-186.463,155.221)">
            <path d="M734.908,963.775L920.124,963.775" style="fill:none;stroke:black;stroke-width:6.84px;"/>
        </g>
        <g transform="matrix(1,0,0,1,-113.532,119.92)">
            <path d="M734.908,963.775L920.124,963.775" style="fill:none;stroke:black;stroke-width:6.84px;"/>
        </g>
        <g transform="matrix(0.440209,0,0,1,297.863,60.2253)">
            <path d="M734.908,963.775L920.124,963.775" style="fill:none;stroke:black;stroke-width:8.85px;"/>
        </g>
        <g transform="matrix(0.518605,0,0,1,-1.6659,97.4348)">
            <path d="M734.908,963.775L920.124,963.775" style="fill:none;stroke:black;stroke-width:8.58px;"/>
        </g>
        <path d="M530.681,1040.7C530.743,1030.95 538.679,1023.05 548.445,1023.05C558.25,1023.05 566.21,1031.01 566.21,1040.82L566.21,1119L530.681,1119L530.681,1040.82L530.681,1040.7Z" style="fill:white;stroke:black;stroke-width:6.84px;"/>
    </g>
    <g transform="matrix(2.51513,0,0,2.51513,-145.275,60.4505)">
        <g transform="matrix(0.350435,0,0,0.350435,-12.8412,453.424)">
            <path d="M393.965,677.574L471.201,808.554L625.674,808.554L702.91,677.574L702.91,638.896L638.358,638.896L638.358,677.574L580.721,677.574L580.721,638.896L516.17,638.896L516.17,677.574L458.516,677.574L458.516,638.896L393.965,638.896L393.965,677.574Z" style="fill:white;stroke:black;stroke-width:11.35px;"/>
        </g>
        <g transform="matrix(0.350435,0,0,0.350435,-12.8066,453.424)">
            <rect x="475.416" y="808.554" width="145.861" height="310.441" style="fill:white;stroke:black;stroke-width:11.35px;"/>
        </g>
        <g transform="matrix(0.350435,0,0,0.350435,-12.8412,453.424)">
            <path d="M530.681,1040.7C530.743,1030.95 538.679,1023.05 548.445,1023.05C558.25,1023.05 566.21,1031.01 566.21,1040.82L566.21,1119L530.681,1119L530.681,1040.82L530.681,1040.7Z" style="fill:white;stroke:black;stroke-width:11.35px;"/>
        </g>
        <g transform="matrix(0.350435,0,0,0.350435,202.495,453.424)">
            <path d="M393.965,677.574L471.201,808.554L625.674,808.554L702.91,677.574L702.91,638.896L638.358,638.896L638.358,677.574L580.721,677.574L580.721,638.896L516.17,638.896L516.17,677.574L458.516,677.574L458.516,638.896L393.965,638.896L393.965,677.574Z" style="fill:white;stroke:black;stroke-width:11.35px;"/>
        </g>
        <g transform="matrix(0.350435,0,0,0.350435,202.53,453.424)">
            <rect x="475.416" y="808.554" width="145.861" height="310.441" style="fill:white;stroke:black;stroke-width:11.35px;"/>
        </g>
        <g transform="matrix(0.350435,0,0,0.350435,202.495,453.424)">
            <path d="M530.681,1040.7C530.743,1030.95 538.679,1023.05 548.445,1023.05C558.25,1023.05 566.21,1031.01 566.21,1040.82L566.21,1119L530.681,1119L530.681,1040.82L530.681,1040.7Z" style="fill:white;stroke:black;stroke-width:11.35px;"/>
        </g>
        <g transform="matrix(0.76103,0,0,0.419485,-148.506,391.299)">
            <path d="M635.203,963.434L509.327,963.434L540.796,621.533L603.734,621.533L635.203,963.434Z" style="fill:white;stroke:black;stroke-width:6.47px;"/>
        </g>
        <g transform="matrix(0.76103,0,0,0.408778,-123.536,395.546)">
            <path d="M539.454,511.745L588.186,627.423L490.722,627.423L539.454,511.745Z" style="fill:white;stroke:black;stroke-width:6.51px;"/>
        </g>
        <g transform="matrix(0.76103,0,0,0.419485,-147.871,391.299)">
            <path d="M594.038,963.434L548.823,963.434L560.127,919.818L582.734,919.818L594.038,963.434Z" style="fill:white;stroke:black;stroke-width:6.47px;"/>
        </g>
        <g transform="matrix(0.76103,0,0,0.408778,-148.506,397.953)">
            <path d="M563.364,692.288C563.395,687.402 567.371,683.444 572.265,683.444C577.178,683.444 581.166,687.433 581.166,692.346L584.883,725.793L559.956,725.793L563.364,692.346L563.364,692.288Z" style="fill:white;stroke:black;stroke-width:6.51px;"/>
        </g>
        <g transform="matrix(2.56328e-17,-0.282333,0.429579,1.77407e-17,-126.749,788.866)">
            <path d="M652.172,963.434L816.346,963.434" style="fill:none;stroke:black;stroke-width:10.94px;"/>
        </g>
        <g transform="matrix(3.68883e-17,0.602432,-0.602432,3.68883e-17,820.413,66.0336)">
            <path d="M844.06,784.143L870.848,885.229L817.272,885.229L844.06,784.143Z" style="fill:white;stroke:black;stroke-width:6.6px;"/>
        </g>
        <g transform="matrix(0.595603,0,0,0.62886,-84.3787,5.32703)">
            <path d="M532.203,1190.61L532.203,1167.28L505.355,1167.28L505.355,1190.61L486.837,1190.61L486.837,1329.25L760.249,1329.25L760.249,1190.61L740.708,1190.61L740.708,1167.28L713.861,1167.28L713.861,1190.61L689.015,1190.61L689.015,1167.28L662.168,1167.28L662.168,1190.61L637.101,1190.61L637.101,1167.28L610.254,1167.28L610.254,1190.61L584.847,1190.61L584.847,1167.28L558,1167.28L558,1190.61L532.203,1190.61Z" style="fill:white;stroke:black;stroke-width:6.49px;"/>
        </g>
        <g transform="matrix(1.08127,0,0,0.477274,-306.011,307.169)">
            <path d="M530.681,1040.7C530.743,1030.95 538.679,1023.05 548.445,1023.05C558.25,1023.05 566.21,1031.01 566.21,1040.82L566.21,1119L530.681,1119L530.681,1040.82L530.681,1040.7Z" style="fill:white;stroke:black;stroke-width:4.76px;"/>
        </g>
        <g transform="matrix(0.418615,0,0,0.429579,150.503,411.106)">
            <path d="M652.172,963.434L816.346,963.434" style="fill:none;stroke:black;stroke-width:9.37px;"/>
        </g>
        <g transform="matrix(0.338522,0,0,0.429579,190.194,431.892)">
            <path d="M652.172,963.434L816.346,963.434" style="fill:none;stroke:black;stroke-width:10.28px;"/>
        </g>
        <g transform="matrix(0.418615,0,0,0.429579,-189.645,427.406)">
            <path d="M652.172,963.434L816.346,963.434" style="fill:none;stroke:black;stroke-width:9.37px;"/>
        </g>
        <g transform="matrix(0.209308,0,0,0.429579,-18.7771,411.106)">
            <path d="M652.172,963.434L816.346,963.434" style="fill:none;stroke:black;stroke-width:11.77px;"/>
        </g>
        <g transform="matrix(0.107118,0,0,0.429579,353.653,402.013)">
            <path d="M652.172,963.434L816.346,963.434" style="fill:none;stroke:black;stroke-width:12.7px;"/>
        </g>
        <g transform="matrix(1,0,0,1,1.31445,0)">
            <path d="M279.114,840.487L279.114,796.76" style="fill:none;stroke:black;stroke-width:3.98px;"/>
        </g>
        <g transform="matrix(1,0,0,1,14.3516,0)">
            <path d="M279.114,840.487L279.114,796.76" style="fill:none;stroke:black;stroke-width:3.98px;"/>
        </g>
        <path d="M268.048,828.626L305.143,828.94" style="fill:none;stroke:black;stroke-width:3.98px;"/>
        <g transform="matrix(1,0,0,1,0,-12.185)">
            <path d="M268.048,828.626L305.143,828.94" style="fill:none;stroke:black;stroke-width:3.98px;"/>
        </g>
        <g transform="matrix(1,0,0,1,0,-22.9039)">
            <path d="M268.048,828.626L305.143,828.94" style="fill:none;stroke:black;stroke-width:3.98px;"/>
        </g>
    </g>
    <g transform="matrix(2.51513,0,0,2.51513,-97.77,179.187)">
        <g>
            <g transform="matrix(0.350435,0,0,0.350435,895.515,1299.99)">
                <path d="M393.965,677.574L471.201,808.554L625.674,808.554L702.91,677.574L702.91,638.896L638.358,638.896L638.358,677.574L580.721,677.574L580.721,638.896L516.17,638.896L516.17,677.574L458.516,677.574L458.516,638.896L393.965,638.896L393.965,677.574Z" style="fill:white;stroke:black;stroke-width:11.35px;"/>
            </g>
            <g transform="matrix(0.350435,0,0,0.350435,895.55,1299.99)">
                <rect x="475.416" y="808.554" width="145.861" height="310.441" style="fill:white;stroke:black;stroke-width:11.35px;"/>
            </g>
        </g>
        <g transform="matrix(1,0,0,1,165.694,0)">
            <g transform="matrix(0.350435,0,0,0.350435,895.515,1299.99)">
                <path d="M393.965,677.574L471.201,808.554L625.674,808.554L702.91,677.574L702.91,638.896L638.358,638.896L638.358,677.574L580.721,677.574L580.721,638.896L516.17,638.896L516.17,677.574L458.516,677.574L458.516,638.896L393.965,638.896L393.965,677.574Z" style="fill:white;stroke:black;stroke-width:11.35px;"/>
            </g>
            <g transform="matrix(0.350435,0,0,0.350435,895.55,1299.99)">
                <rect x="475.416" y="808.554" width="145.861" height="310.441" style="fill:white;stroke:black;stroke-width:11.35px;"/>
            </g>
        </g>
        <g transform="matrix(0.350435,0,0,0.350435,895.515,1245.6)">
            <path d="M530.681,1040.7C530.743,1030.95 538.679,1023.05 548.445,1023.05C558.25,1023.05 566.21,1031.01 566.21,1040.82L566.21,1119L530.681,1119L530.681,1040.82L530.681,1040.7Z" style="fill:white;stroke:black;stroke-width:11.35px;"/>
        </g>
        <g transform="matrix(0.350435,0,0,0.350435,1061.21,1245.6)">
            <path d="M530.681,1040.7C530.743,1030.95 538.679,1023.05 548.445,1023.05C558.25,1023.05 566.21,1031.01 566.21,1040.82L566.21,1119L530.681,1119L530.681,1040.82L530.681,1040.7Z" style="fill:white;stroke:black;stroke-width:11.35px;"/>
        </g>
        <g>
            <g transform="matrix(1,0,0,1,-1.20131,13.2759)">
                <g transform="matrix(1.05392,0,0,0.445701,568.736,1285.02)">
                    <path d="M635.203,963.434L509.327,963.434L540.796,621.533L603.734,621.533L635.203,963.434Z" style="fill:white;stroke:black;stroke-width:4.91px;"/>
                </g>
                <g transform="matrix(0.808592,0,0,0.434326,735.661,1289.53)">
                    <path d="M539.454,511.745L588.186,627.423L490.722,627.423L539.454,511.745Z" style="fill:white;stroke:black;stroke-width:6.13px;"/>
                </g>
                <g transform="matrix(0.808592,0,0,0.434326,709.13,1292.09)">
                    <path d="M563.364,692.288C563.395,687.402 567.371,683.444 572.265,683.444C577.178,683.444 581.166,687.433 581.166,692.346L584.883,725.793L559.956,725.793L563.364,692.346L563.364,692.288Z" style="fill:white;stroke:black;stroke-width:6.13px;"/>
                </g>
                <g transform="matrix(2.72348e-17,-0.299978,0.456427,1.88494e-17,732.247,1707.43)">
                    <path d="M652.172,963.434L816.346,963.434" style="fill:none;stroke:black;stroke-width:10.29px;"/>
                </g>
                <rect x="1171.98" y="1462.55" width="32.948" height="24.624" style="fill:white;stroke:black;stroke-width:3.98px;"/>
                <g transform="matrix(6.12323e-17,1,-1,6.12323e-17,2766.97,226.379)">
                    <path d="M1260.51,1511.8L1272.54,1562.04L1248.48,1562.04L1260.51,1511.8Z" style="fill:white;stroke:black;stroke-width:3.98px;"/>
                </g>
            </g>
            <path d="M1069.7,1671.09L1086.53,1671.09L1086.53,1660.42L1100.48,1660.42L1100.48,1671.09L1117.31,1671.09L1117.31,1660.42L1131.26,1660.42L1131.26,1671.09L1148.09,1671.09L1148.09,1660.42L1162.04,1660.42L1162.04,1671.09L1178.87,1671.09L1178.87,1660.42L1192.82,1660.42L1192.82,1671.09L1209.64,1671.09L1209.64,1660.42L1223.6,1660.42L1223.6,1671.09L1240.42,1671.09L1240.42,1660.42L1254.38,1660.42L1254.38,1671.09L1271.2,1671.09L1271.2,1660.42L1285.16,1660.42L1285.16,1671.09L1286.54,1671.09L1342.72,1746.11L998.858,1746.11L1055.03,1671.09L1055.75,1671.09L1055.75,1660.42L1069.7,1660.42L1069.7,1671.09Z" style="fill:white;stroke:black;stroke-width:3.98px;"/>
        </g>
        <g transform="matrix(1,0,0,1,-7.71648,-129.801)">
            <path d="M1245.88,1867.41L1232.66,1884.57C1221.34,1899.28 1203.83,1907.89 1185.27,1907.89C1167.42,1907.89 1146.68,1907.89 1139.11,1907.89C1137.25,1907.89 1135.49,1907.03 1134.36,1905.56C1128.39,1897.81 1109.18,1872.86 1100.83,1862.01C1100.09,1861.06 1099.96,1859.76 1100.49,1858.67C1101.03,1857.59 1102.13,1856.9 1103.34,1856.9C1131.46,1856.9 1241.84,1856.9 1241.84,1856.9L1299.36,1844.17L1245.88,1867.41Z" style="fill:white;stroke:black;stroke-width:3.98px;"/>
            <rect x="1153.85" y="1777.89" width="5.186" height="79.005" style="fill:white;stroke:black;stroke-width:3.98px;"/>
            <g transform="matrix(1,0,0,1,37.6812,0)">
                <rect x="1153.85" y="1777.89" width="5.186" height="79.005" style="fill:white;stroke:black;stroke-width:3.98px;"/>
            </g>
            <g transform="matrix(1,0,0,1,45.803,-8.99442)">
                <path d="M1127.15,1858.48C1132.16,1851.35 1138.48,1841.67 1138.48,1831.58C1138.48,1821.48 1132.16,1811.8 1127.15,1804.67L1089.37,1804.67C1084.36,1811.8 1094.49,1821.48 1094.49,1831.58C1094.49,1841.67 1084.36,1851.35 1089.37,1858.48L1127.15,1858.48Z" style="fill:white;stroke:black;stroke-width:3.98px;"/>
            </g>
            <g transform="matrix(0.582132,0,0,0.582132,508.04,707.685)">
                <path d="M1127.15,1858.48C1132.16,1851.35 1138.48,1841.67 1138.48,1831.58C1138.48,1821.48 1132.16,1811.8 1127.15,1804.67L1089.37,1804.67C1084.36,1811.8 1094.49,1821.48 1094.49,1831.58C1094.49,1841.67 1084.36,1851.35 1089.37,1858.48L1127.15,1858.48Z" style="fill:white;stroke:black;stroke-width:6.83px;"/>
            </g>
            <g transform="matrix(0.763199,0,0,0.582132,345.084,707.685)">
                <path d="M1127.15,1858.48C1132.16,1851.35 1138.48,1841.67 1138.48,1831.58C1138.48,1821.48 1132.16,1811.8 1127.15,1804.67L1089.37,1804.67C1084.36,1811.8 1094.49,1821.48 1094.49,1831.58C1094.49,1841.67 1084.36,1851.35 1089.37,1858.48L1127.15,1858.48Z" style="fill:white;stroke:black;stroke-width:5.86px;"/>
            </g>
            <g transform="matrix(1.22189,0,0,1.22189,-158.602,-421.369)">
                <path d="M1127.15,1858.48C1132.16,1851.35 1138.48,1841.67 1138.48,1831.58C1138.48,1821.48 1132.16,1811.8 1127.15,1804.67L1089.37,1804.67C1084.36,1811.8 1094.49,1821.48 1094.49,1831.58C1094.49,1841.67 1084.36,1851.35 1089.37,1858.48L1127.15,1858.48Z" style="fill:white;stroke:black;stroke-width:3.25px;"/>
            </g>
            <circle cx="1133.71" cy="1874.82" r="5.186" style="fill:white;stroke:black;stroke-width:3.98px;"/>
            <g transform="matrix(1,0,0,1,20.137,0)">
                <circle cx="1133.71" cy="1874.82" r="5.186" style="fill:white;stroke:black;stroke-width:3.98px;"/>
            </g>
            <g transform="matrix(1,0,0,1,40.274,0)">
                <circle cx="1133.71" cy="1874.82" r="5.186" style="fill:white;stroke:black;stroke-width:3.98px;"/>
            </g>
            <g transform="matrix(1,0,0,1,60.4109,0)">
                <circle cx="1133.71" cy="1874.82" r="5.186" style="fill:white;stroke:black;stroke-width:3.98px;"/>
            </g>
            <g transform="matrix(1,0,0,1,80.5479,0)">
                <circle cx="1133.71" cy="1874.82" r="5.186" style="fill:white;stroke:black;stroke-width:3.98px;"/>
            </g>
        </g>
        <path d="M1097.42,1762.89L1061.84,1762.89" style="fill:none;stroke:black;stroke-width:3.98px;"/>
        <g transform="matrix(1,0,0,1,23.9219,8.4349)">
            <path d="M1097.42,1762.89L1029.74,1762.89" style="fill:none;stroke:black;stroke-width:3.98px;"/>
        </g>
        <g transform="matrix(1,0,0,1,153.362,15.2021)">
            <path d="M1097.42,1762.89L1029.74,1762.89" style="fill:none;stroke:black;stroke-width:3.98px;"/>
        </g>
        <g transform="matrix(1,0,0,1,119.525,24.3089)">
            <path d="M1097.42,1762.89L1029.74,1762.89" style="fill:none;stroke:black;stroke-width:3.98px;"/>
        </g>
        <g transform="matrix(1,0,0,1,67.8817,32.3506)">
            <path d="M1097.42,1762.89L1059.74,1762.89" style="fill:none;stroke:black;stroke-width:3.98px;"/>
        </g>
        <g transform="matrix(1,0,0,1,187.199,0)">
            <path d="M1139.56,1762.89L1029.74,1762.89" style="fill:none;stroke:black;stroke-width:3.98px;"/>
        </g>
        <g transform="matrix(1,0,0,1,207.246,8.4349)">
            <path d="M1074.32,1762.89L1029.74,1762.89" style="fill:none;stroke:black;stroke-width:3.98px;"/>
        </g>
        <g transform="matrix(1,0,0,1,-43.7522,-8.13802)">
            <path d="M1123.38,1762.89L1029.74,1762.89" style="fill:none;stroke:black;stroke-width:3.98px;"/>
        </g>
    </g>
    <g transform="matrix(2.51513,0,0,2.51513,-145.275,60.4505)">
        <g transform="matrix(0.808592,0,0,0.445701,726.052,866.269)">
            <path d="M635.203,963.434L509.327,963.434L540.796,621.533L603.734,621.533L635.203,963.434Z" style="fill:white;stroke:black;stroke-width:6.09px;"/>
        </g>
        <g transform="matrix(0.808592,0,0,0.434326,752.582,870.781)">
            <path d="M539.454,511.745L588.186,627.423L490.722,627.423L539.454,511.745Z" style="fill:white;stroke:black;stroke-width:6.13px;"/>
        </g>
        <g transform="matrix(0.808592,0,0,0.445701,726.727,866.269)">
            <path d="M594.038,963.434L548.823,963.434L560.127,919.818L582.734,919.818L594.038,963.434Z" style="fill:white;stroke:black;stroke-width:6.09px;"/>
        </g>
        <g transform="matrix(0.808592,0,0,0.434326,726.052,873.339)">
            <path d="M563.364,692.288C563.395,687.402 567.371,683.444 572.265,683.444C577.178,683.444 581.166,687.433 581.166,692.346L584.883,725.793L559.956,725.793L563.364,692.346L563.364,692.288Z" style="fill:white;stroke:black;stroke-width:6.13px;"/>
        </g>
        <g transform="matrix(2.72348e-17,-0.299978,0.456427,1.88494e-17,749.169,1288.68)">
            <path d="M652.172,963.434L816.346,963.434" style="fill:none;stroke:black;stroke-width:10.29px;"/>
        </g>
        <g transform="matrix(3.91937e-17,0.640082,-0.640082,3.91937e-17,1755.53,520.675)">
            <path d="M844.06,784.143L870.848,885.229L817.272,885.229L844.06,784.143Z" style="fill:white;stroke:black;stroke-width:6.21px;"/>
        </g>
        <g transform="matrix(0.359679,0,0,0.456427,770.307,880.207)">
            <path d="M652.172,963.434L816.346,963.434" style="fill:none;stroke:black;stroke-width:9.68px;"/>
        </g>
        <g transform="matrix(0.359679,0,0,0.456427,770.307,868.71)">
            <path d="M760.056,963.434L816.346,963.434" style="fill:none;stroke:black;stroke-width:9.68px;"/>
        </g>
        <g transform="matrix(0.359679,0,0,0.456427,1080.5,888.986)">
            <path d="M652.172,963.434L844.815,963.434" style="fill:none;stroke:black;stroke-width:9.68px;"/>
        </g>
        <g transform="matrix(0.359679,0,0,0.456427,1079.47,868.71)">
            <path d="M652.172,963.434L757.625,963.434" style="fill:none;stroke:black;stroke-width:9.68px;"/>
        </g>
        <g transform="matrix(0.359679,0,0,0.456427,770.307,850.246)">
            <path d="M734.259,963.434L816.346,963.434" style="fill:none;stroke:black;stroke-width:9.68px;"/>
        </g>
        <g transform="matrix(0.359679,0,0,0.456427,1079.47,880.207)">
            <path d="M652.172,963.434L737.116,963.434" style="fill:none;stroke:black;stroke-width:9.68px;"/>
        </g>
        <g transform="matrix(0.760699,0,0,0.43705,252.524,633.138)">
            <path d="M1163.98,1571.46L1081.22,1571.46L1101.91,1247.77L1143.29,1247.77L1163.98,1571.46Z" style="fill:white;stroke:black;stroke-width:6.41px;"/>
        </g>
        <g transform="matrix(0.760699,0,0,0.43705,418.541,633.138)">
            <path d="M1163.98,1571.46L1081.22,1571.46L1101.91,1247.77L1143.29,1247.77L1163.98,1571.46Z" style="fill:white;stroke:black;stroke-width:6.41px;"/>
        </g>
        <g transform="matrix(0.784565,0,0,0.760699,249.282,133.31)">
            <path d="M1205.32,1484.29L1189.55,1484.29L1189.55,1469.61L1173.56,1469.61L1173.56,1484.29L1158.76,1484.29L1158.76,1469.61L1142.77,1469.61L1142.77,1484.29L1127.84,1484.29L1127.84,1469.61L1111.85,1469.61L1111.85,1484.29L1096.72,1484.29L1096.72,1469.61L1080.73,1469.61L1080.73,1484.29L1065.36,1484.29L1065.36,1469.61L1049.37,1469.61L1049.37,1484.29L1038.34,1484.29L1038.34,1571.47L1357.14,1571.47L1357.14,1484.29L1345.5,1484.29L1345.5,1469.61L1329.51,1469.61L1329.51,1484.29L1314.71,1484.29L1314.71,1469.61L1298.72,1469.61L1298.72,1484.29L1283.79,1484.29L1283.79,1469.61L1267.8,1469.61L1267.8,1484.29L1252.67,1484.29L1252.67,1469.61L1236.68,1469.61L1236.68,1484.29L1221.32,1484.29L1221.32,1469.61L1205.32,1469.61L1205.32,1484.29Z" style="fill:white;stroke:black;stroke-width:5.15px;"/>
        </g>
        <g transform="matrix(0.822519,0,0,0.363062,737.881,922.458)">
            <path d="M530.681,1040.7C530.743,1030.95 538.679,1023.05 548.445,1023.05C558.25,1023.05 566.21,1031.01 566.21,1040.82L566.21,1119L530.681,1119L530.681,1040.82L530.681,1040.7Z" style="fill:white;stroke:black;stroke-width:6.25px;"/>
        </g>
        <g transform="matrix(0.760699,0,0,0.760699,270.748,133.314)">
            <path d="M1200.52,1571.46L1200.61,1528.06" style="fill:none;stroke:black;stroke-width:5.23px;"/>
        </g>
        <g transform="matrix(0.760699,0,0,0.760699,280.523,133.314)">
            <path d="M1200.52,1571.46L1200.61,1528.06" style="fill:none;stroke:black;stroke-width:5.23px;"/>
        </g>
        <g transform="matrix(0.760699,0,0,0.760699,272.009,133.314)">
            <path d="M1186.23,1560.38L1224.65,1559.92" style="fill:none;stroke:black;stroke-width:5.23px;"/>
        </g>
        <g transform="matrix(0.760699,0,0,0.760699,272.009,124.324)">
            <path d="M1186.23,1560.38L1224.65,1559.92" style="fill:none;stroke:black;stroke-width:5.23px;"/>
        </g>
        <g transform="matrix(0.760699,0,0,0.760699,272.009,115.71)">
            <path d="M1186.23,1560.38L1224.65,1559.92" style="fill:none;stroke:black;stroke-width:5.23px;"/>
        </g>
        <g transform="matrix(0.528592,0,0,0.303695,821.336,987.932)">
            <path d="M539.454,511.745L588.186,627.423L490.722,627.423L539.454,511.745Z" style="fill:white;stroke:black;stroke-width:9.22px;"/>
        </g>
        <g transform="matrix(0.528592,0,0,0.303695,987.352,987.932)">
            <path d="M539.454,511.745L588.186,627.423L490.722,627.423L539.454,511.745Z" style="fill:white;stroke:black;stroke-width:9.22px;"/>
        </g>
        <g transform="matrix(0.429012,0,0,0.429012,619.089,662.167)">
            <path d="M1152.04,1294.94L1120.15,1294.94C1120.15,1294.94 1124.7,1264.88 1126.93,1250.2C1127.61,1245.67 1131.51,1242.32 1136.09,1242.32C1136.09,1242.32 1136.09,1242.32 1136.09,1242.32C1140.68,1242.32 1144.57,1245.67 1145.26,1250.2C1147.48,1264.88 1152.04,1294.94 1152.04,1294.94Z" style="fill:white;stroke:black;stroke-width:9.27px;"/>
        </g>
        <g transform="matrix(0.429012,0,0,0.429012,785.106,662.167)">
            <path d="M1152.04,1294.94L1120.15,1294.94C1120.15,1294.94 1124.7,1264.88 1126.93,1250.2C1127.61,1245.67 1131.51,1242.32 1136.09,1242.32C1136.09,1242.32 1136.09,1242.32 1136.09,1242.32C1140.68,1242.32 1144.57,1245.67 1145.26,1250.2C1147.48,1264.88 1152.04,1294.94 1152.04,1294.94Z" style="fill:white;stroke:black;stroke-width:9.27px;"/>
        </g>
    </g>
    <g transform="matrix(2.3363,0,0,2.3363,1335.69,-1196.23)">
        <g transform="matrix(0.338522,0,0,0.429579,567.331,1021.32)">
            <path d="M652.172,963.434L816.346,963.434" style="fill:none;stroke:black;stroke-width:11.07px;"/>
        </g>
        <g transform="matrix(0.476326,0,0,0.429579,477.459,992.632)">
            <path d="M652.172,963.434L816.346,963.434" style="fill:none;stroke:black;stroke-width:9.44px;"/>
        </g>
        <g transform="matrix(0.238163,0,0,0.429579,632.782,1032.53)">
            <path d="M652.172,963.434L816.346,963.434" style="fill:none;stroke:black;stroke-width:12.32px;"/>
        </g>
        <path d="M829.928,1405.61C828.841,1400.34 825.79,1395.66 823.719,1390.49" style="fill:none;stroke:black;stroke-width:4.28px;"/>
        <path d="M830.428,1404.49C829.907,1403.08 835.739,1393.29 835.88,1393.29" style="fill:none;stroke:black;stroke-width:4.28px;"/>
        <path d="M823.988,1434.11C824.922,1431.35 821.848,1426.16 821.848,1422.76" style="fill:none;stroke:black;stroke-width:4.28px;"/>
        <g transform="matrix(1,0,0,1,0.0958275,-1.41459)">
            <path d="M824.667,1435.52C821.709,1431.82 830.581,1423.85 832.606,1421.83" style="fill:none;stroke:black;stroke-width:4.28px;"/>
        </g>
        <g transform="matrix(1,0,0,0.8872,-2.33031,162.426)">
            <path d="M824.178,1434.96C824.225,1432.21 813.716,1426.97 813.897,1426.97" style="fill:none;stroke:black;stroke-width:4.53px;"/>
        </g>
        <g transform="matrix(1,0,0,1,-0.120667,-1.42016)">
            <path d="M485.125,1414.46C484.77,1409.72 483.589,1405.57 482.275,1400.31" style="fill:none;stroke:black;stroke-width:4.28px;"/>
        </g>
        <g transform="matrix(1,0,0,1,-0.120667,-1.42016)">
            <path d="M486.303,1415.02C488.861,1405.45 493.968,1397.57 493.968,1386.75" style="fill:none;stroke:black;stroke-width:4.28px;"/>
        </g>
        <g transform="matrix(0.338522,0,0,0.429579,240.059,999.926)">
            <path d="M652.172,963.434L816.346,963.434" style="fill:none;stroke:black;stroke-width:11.07px;"/>
        </g>
        <g transform="matrix(0.469049,0,0,0.429579,140.629,1014.71)">
            <path d="M652.172,963.434L816.346,963.434" style="fill:none;stroke:black;stroke-width:9.52px;"/>
        </g>
        <g transform="matrix(0.250687,0,0,0.429579,325.132,1021.32)">
            <path d="M652.172,963.434L816.346,963.434" style="fill:none;stroke:black;stroke-width:12.17px;"/>
        </g>
        <g transform="matrix(0.136593,0,0,0.429579,699.023,1002.18)">
            <path d="M652.172,963.434L816.346,963.434" style="fill:none;stroke:black;stroke-width:13.43px;"/>
        </g>
        <path d="M571.168,1348.64L571.168,1303.43C572.689,1301.53 574.837,1299.39 577.473,1298.23C577.525,1298.18 588.249,1299.62 588.676,1300.05C591.004,1302.38 587.367,1310.07 589.515,1312.22C590.726,1313.43 595.473,1311.42 597.065,1312.22C598.918,1313.14 600.723,1316.14 603.777,1317.67C605.143,1318.35 608.487,1312.73 610.488,1314.73C612.618,1316.86 611.985,1318.84 614.683,1320.19C616.455,1321.07 615.62,1324.48 616.78,1325.64C621.284,1330.14 626.857,1335.31 629.783,1341.16C630.018,1341.63 630.36,1342.34 631.041,1342C634.724,1340.16 632.969,1330.42 635.236,1328.16C637.228,1326.16 640.365,1323.03 642.786,1320.61C644.509,1318.88 646.457,1324.85 649.078,1323.54C653.582,1321.29 659.366,1319.13 662.081,1316.41C662.305,1316.19 662.605,1315.21 663.339,1315.57C664.393,1316.1 667.137,1320.58 667.953,1319.77C670.681,1317.04 670.014,1312.25 672.567,1309.7C674.621,1307.65 681.791,1309.49 684.732,1308.02C687.258,1306.76 689.774,1296.49 696.896,1300.05C698.955,1301.08 697.075,1310.3 698.574,1311.8C700.405,1313.63 705.754,1311.01 707.382,1312.64C708.722,1313.98 711.437,1310.68 711.996,1310.12C713.744,1308.37 711.087,1302.22 712.835,1300.47C713.945,1299.36 725.159,1299.37 726.258,1300.47C728.314,1302.53 725.805,1310.51 727.935,1312.64C730.192,1314.89 736.096,1312.23 738.45,1313.6L738.45,1320.39C737.293,1323.87 735.814,1327.65 737.583,1329.41C737.904,1329.74 738.189,1330.04 738.45,1330.32L738.45,1439.93L571.168,1439.93L571.168,1366.17C573.268,1367.37 575.263,1368.96 576.433,1369.54C576.895,1369.77 577.702,1369.31 578.164,1369.54C578.904,1369.91 578.863,1372.2 579.462,1373C580.3,1374.12 581.773,1375.31 582.491,1376.03C583.063,1376.61 582.673,1379.86 583.14,1380.79C584.009,1382.53 588.661,1385.28 590.496,1386.2C591.487,1386.7 594.569,1390.78 594.823,1390.53C597.99,1387.36 593.116,1379.78 592.01,1376.46C591.759,1375.71 592.571,1374.65 592.01,1374.09C590.164,1372.24 587.582,1371.94 586.601,1368.68C586.371,1367.91 586.11,1366.6 586.601,1365.86C586.774,1365.61 587.755,1365.29 587.683,1365.21C586.56,1364.09 583.578,1364.79 582.274,1363.48C580.884,1362.09 582.275,1360.13 581.625,1358.51C580.267,1355.11 575.917,1353.02 573.404,1350.5C572.703,1349.8 571.953,1349.19 571.168,1348.64Z" style="fill:white;stroke:black;stroke-width:4.28px;"/>
        <g transform="matrix(1.08127,0,0,0.477274,61.7932,905.867)">
            <path d="M530.681,1040.7C530.743,1030.95 538.679,1023.05 548.445,1023.05C558.25,1023.05 566.21,1031.01 566.21,1040.82L566.21,1119L530.681,1119L530.681,1040.82L530.681,1040.7Z" style="fill:white;stroke:black;stroke-width:5.12px;"/>
        </g>
        <g transform="matrix(1,0,0,1,-11.3124,-4.09568)">
            <path d="M800.466,1213.25L800.466,1450.97L738.45,1450.97L738.45,1287.38C741.286,1286.53 746.062,1287.56 748.02,1285.61C751.217,1282.41 744.833,1276.98 747.506,1274.3C748.44,1273.37 755.665,1251.37 756.754,1248.1C758.095,1244.08 750.416,1231.83 754.699,1227.55C757.456,1224.79 768.34,1230.86 769.085,1230.12C774.598,1224.6 775.541,1237.53 779.874,1233.2C780.936,1232.14 781.415,1231.32 781.415,1229.09C781.415,1225.43 786.178,1229.02 790.15,1227.04C791.786,1226.22 789.991,1219.13 791.177,1216.76C792.006,1215.1 794.686,1217.57 796.315,1216.76C798.203,1215.82 799.394,1214.58 800.466,1213.25Z" style="fill:white;stroke:black;stroke-width:4.28px;"/>
        </g>
        <path d="M788.136,1323.73C788.282,1324.1 787.209,1327.09 786.768,1327.97C785.605,1330.3 784.991,1332.69 783.41,1334.27C782.439,1335.24 780.251,1334.28 779.422,1335.11C778.292,1336.24 776.542,1337.09 775.434,1339.31C774.222,1341.73 772.998,1342.71 771.866,1344.97C771.401,1345.9 771.532,1348.45 770.817,1349.17C770.111,1349.88 766.199,1351.63 766.199,1352.95" style="fill:none;stroke:black;stroke-width:4.28px;"/>
        <path d="M786.528,1399.72C785.621,1399.87 783.933,1401.59 782.99,1402.06C780.347,1403.38 778.106,1404.4 775.224,1405.84" style="fill:none;stroke:black;stroke-width:4.28px;"/>
        <path d="M595.382,1390.48C591.161,1387.8 599.385,1395.83 600.333,1396.07C601.292,1396.31 603.323,1395.86 604.22,1396.31C605.755,1397.08 606.024,1400.3 606.892,1401.17C607.661,1401.93 609.686,1401.29 610.293,1401.89C610.98,1402.58 611.731,1403.83 612.722,1404.33C613.658,1404.79 615.152,1403.63 615.152,1405.05" style="fill:none;stroke:black;stroke-width:4.28px;"/>
        <path d="M645.709,1395.49C646.004,1396.6 645.192,1399.85 645.192,1401.44C645.192,1405.94 645.752,1410.35 645.752,1414.9" style="fill:none;stroke:black;stroke-width:4.28px;"/>
        <path d="M652.96,1395.53C653.214,1395.89 652.602,1397.88 652.856,1398.64C653.956,1401.94 653.23,1407.71 653.23,1410.98" style="fill:none;stroke:black;stroke-width:4.28px;"/>
        <path d="M637.069,1407.32C637.345,1407.67 642.405,1405.36 643.135,1405C644.005,1404.56 646.074,1405.24 646.687,1404.62C648.554,1402.75 656.025,1402.94 659.025,1402.94" style="fill:none;stroke:black;stroke-width:4.28px;"/>
        <path d="M636.427,1416.06C639.888,1415.4 643.067,1411.54 647.061,1411.54" style="fill:none;stroke:black;stroke-width:4.28px;"/>
        <path d="M516.411,1419.5L516.411,1351.1C517.775,1350.54 519.21,1350.02 520.715,1349.51C523.099,1348.72 524.861,1351.02 527.112,1350.27C528.321,1349.86 541.121,1344.07 541.412,1343.49C544.87,1336.58 520.052,1328.91 526.511,1322.45C527.389,1321.57 530,1318.25 530.499,1319.03C532.494,1322.15 536.156,1319.37 536.43,1319.64C537.058,1320.27 540.756,1321.9 542.541,1322.8C543.391,1323.22 546.431,1322.67 547.056,1322.04C547.772,1321.33 546.232,1319.1 546.68,1318.66C548.019,1317.32 552.65,1318.33 554.206,1316.77C554.675,1316.31 548.373,1307.93 548.938,1307.37C549.819,1306.49 561.844,1302.74 562.485,1302.1C562.872,1301.71 561.962,1299.12 561.172,1297.15L577.226,1278.73L577.226,1448.39L530.551,1448.39C530.363,1446.74 530.144,1445.41 529.957,1445.04C529.26,1443.65 527.378,1443.93 526.717,1442.61C526.674,1442.53 531.197,1438.58 530.362,1437.75C529.123,1436.51 528.621,1434.39 527.122,1432.89C525.839,1431.61 522.733,1432.14 521.45,1430.86C521.183,1430.6 533.232,1421.58 529.147,1417.5C527.608,1415.96 521.067,1421.23 516.411,1419.5Z" style="fill:white;stroke:black;stroke-width:4.28px;"/>
        <path d="M493.986,1396.66C494.034,1395.62 497.819,1394.29 498.91,1393.2C500.845,1391.27 501.061,1388.71 503.123,1386.65" style="fill:none;stroke:black;stroke-width:4.28px;"/>
    </g>
    <g transform="matrix(2.51513,0,0,2.51513,-145.275,60.4505)">
        <g transform="matrix(0.694876,0,0,0.694876,509.524,-269.71)">
            <path d="M476.368,803.664L503.312,803.664L503.312,779.744L523.533,779.744L523.533,803.664L620.997,803.664L620.997,779.744L641.218,779.744L641.218,803.664L668.443,803.664L668.443,779.744L688.665,779.744L688.665,803.664L689.163,803.664L721.115,947.314L423.415,947.314L455.367,803.664L456.147,803.664L456.147,779.744L476.368,779.744L476.368,803.664Z" style="fill:white;stroke:black;stroke-width:5.72px;"/>
        </g>
        <g transform="matrix(0.694876,0,0,0.713075,509.524,-281.021)">
            <path d="M635.203,963.434L509.327,963.434L540.796,621.533L603.734,621.533L635.203,963.434Z" style="fill:white;stroke:black;stroke-width:5.65px;"/>
        </g>
        <g transform="matrix(0.694876,0,0,0.694876,532.323,-273.802)">
            <path d="M539.454,511.745L588.186,627.423L490.722,627.423L539.454,511.745Z" style="fill:white;stroke:black;stroke-width:5.72px;"/>
        </g>
        <g transform="matrix(0.694876,0,0,0.713075,510.104,-281.021)">
            <path d="M594.038,963.434L548.823,963.434L560.127,919.818L582.734,919.818L594.038,963.434Z" style="fill:white;stroke:black;stroke-width:5.65px;"/>
        </g>
        <g transform="matrix(0.694876,0,0,0.694876,509.524,-269.71)">
            <path d="M563.364,692.288C563.395,687.402 567.371,683.444 572.265,683.444C577.178,683.444 581.166,687.433 581.166,692.346L584.883,725.793L559.956,725.793L563.364,692.346L563.364,692.288Z" style="fill:white;stroke:black;stroke-width:5.72px;"/>
        </g>
        <g transform="matrix(0.694876,0,0,0.713075,497.732,-281.021)">
            <path d="M652.172,963.434L816.346,963.434" style="fill:none;stroke:black;stroke-width:5.65px;"/>
        </g>
        <g transform="matrix(0.694876,0,0,0.694876,285.272,-280.911)">
            <path d="M652.172,963.434L816.346,963.434" style="fill:none;stroke:black;stroke-width:5.72px;"/>
        </g>
        <g transform="matrix(0.720018,0,0,0.694876,298.932,-293.965)">
            <path d="M652.172,963.434L701.111,963.434" style="fill:none;stroke:black;stroke-width:5.62px;"/>
        </g>
        <g transform="matrix(0.720018,0,0,0.694876,538.376,-293.965)">
            <path d="M652.172,963.434L701.111,963.434" style="fill:none;stroke:black;stroke-width:5.62px;"/>
        </g>
        <g transform="matrix(0.720018,0,0,0.694876,534.247,-312.542)">
            <path d="M652.172,963.434L759.939,963.434" style="fill:none;stroke:black;stroke-width:5.62px;"/>
        </g>
    </g>
    <g transform="matrix(2.51513,0,0,2.51513,-818.301,-653.224)">
        <g transform="matrix(0.396813,0,0,0.407206,406.798,1213.18)">
            <path d="M652.172,963.434L816.346,963.434" style="fill:none;stroke:black;stroke-width:9.89px;"/>
        </g>
        <g transform="matrix(0.242951,0,0,0.407206,257.855,1202.54)">
            <path d="M652.172,963.434L816.346,963.434" style="fill:none;stroke:black;stroke-width:11.86px;"/>
        </g>
        <g transform="matrix(0.569578,0,0,0.407206,-8.78614,1222.15)">
            <path d="M652.172,963.434L816.346,963.434" style="fill:none;stroke:black;stroke-width:8.03px;"/>
        </g>
        <g transform="matrix(0.326223,0,0,0.407206,303.663,1232.17)">
            <path d="M652.172,963.434L816.346,963.434" style="fill:none;stroke:black;stroke-width:10.78px;"/>
        </g>
        <g transform="matrix(0.227768,0,0,0.407206,515.004,1202.54)">
            <path d="M652.172,963.434L816.346,963.434" style="fill:none;stroke:black;stroke-width:12.05px;"/>
        </g>
        <g transform="matrix(0.571056,0,0,0.571056,248.158,652.197)">
            <path d="M730.98,1688.89L417.933,1686.59L434.488,1487.65L710.437,1491.96L730.98,1688.89Z" style="fill:white;stroke:black;stroke-width:6.96px;"/>
        </g>
        <g transform="matrix(0.624296,0,0,0.435602,212.469,1128.31)">
            <path d="M530.681,1040.7C530.743,1030.95 538.679,1023.05 548.445,1023.05C558.25,1023.05 566.21,1031.01 566.21,1040.82L566.21,1119L530.681,1119L530.681,1040.82L530.681,1040.7Z" style="fill:white;stroke:black;stroke-width:7.39px;"/>
        </g>
        <g transform="matrix(0.624296,0,0,0.435602,252.414,1128.31)">
            <path d="M530.681,1040.7C530.743,1030.95 538.679,1023.05 548.445,1023.05C558.25,1023.05 566.21,1031.01 566.21,1040.82L566.21,1119L530.681,1119L530.681,1040.82L530.681,1040.7Z" style="fill:white;stroke:black;stroke-width:7.39px;"/>
        </g>
        <g transform="matrix(0.624296,0,0,0.435602,291.596,1128.31)">
            <path d="M530.681,1040.7C530.743,1030.95 538.679,1023.05 548.445,1023.05C558.25,1023.05 566.21,1031.01 566.21,1040.82L566.21,1119L530.681,1119L530.681,1040.82L530.681,1040.7Z" style="fill:white;stroke:black;stroke-width:7.39px;"/>
        </g>
        <g transform="matrix(0.595272,0,0,0.571056,191.644,652.197)">
            <path d="M796.181,1505.13L511.751,1505.13L512.495,1419.03L701.619,1419.03L796.181,1505.13Z" style="fill:white;stroke:black;stroke-width:6.82px;"/>
        </g>
        <g transform="matrix(0.571056,0,0,0.539768,248.158,692.35)">
            <path d="M471.578,1726.92L364.288,1726.92L391.111,1283.34L444.755,1283.34L471.578,1726.92Z" style="fill:white;stroke:black;stroke-width:7.16px;"/>
        </g>
        <g transform="matrix(0.396813,0,0,0.396813,259.678,1126.51)">
            <path d="M563.364,692.288C563.395,687.402 567.371,683.444 572.265,683.444C577.178,683.444 581.166,687.433 581.166,692.346L584.883,725.793L559.956,725.793L563.364,692.346L563.364,692.288Z" style="fill:white;stroke:black;stroke-width:10.02px;"/>
        </g>
        <g transform="matrix(0.396813,0,0,0.396813,259.678,1175.66)">
            <path d="M563.364,692.288C563.395,687.402 567.371,683.444 572.265,683.444C577.178,683.444 581.166,687.433 581.166,692.346L584.883,725.793L559.956,725.793L563.364,692.346L563.364,692.288Z" style="fill:white;stroke:black;stroke-width:10.02px;"/>
        </g>
        <g transform="matrix(0.396813,0,0,0.396813,259.678,1233.57)">
            <path d="M563.364,692.288C563.395,687.402 567.371,683.444 572.265,683.444C577.178,683.444 581.166,687.433 581.166,692.346L584.883,725.793L559.956,725.793L563.364,692.346L563.364,692.288Z" style="fill:white;stroke:black;stroke-width:10.02px;"/>
        </g>
        <g transform="matrix(0.571056,0,0,0.571056,281.922,652.197)">
            <path d="M358.807,1078.53L400.263,1283.34L317.351,1283.34L358.807,1078.53Z" style="fill:white;stroke:black;stroke-width:6.96px;"/>
        </g>
        <g transform="matrix(0.998365,0,0,0.53694,-23.0711,698.989)">
            <rect x="621.575" y="1371.55" width="11.136" height="49.451" style="fill:white;stroke:black;stroke-width:4.96px;"/>
        </g>
    </g>
    <g transform="matrix(1.87335,0,0,1.87335,147.754,-472.931)">
        <g transform="matrix(0.694876,0,0,0.713075,331.364,692.257)">
            <path d="M652.172,963.434L816.346,963.434" style="fill:none;stroke:black;stroke-width:7.58px;"/>
        </g>
        <g transform="matrix(0.584303,0,0,0.713075,445.893,707.617)">
            <path d="M652.172,963.434L816.346,963.434" style="fill:none;stroke:black;stroke-width:8.19px;"/>
        </g>
        <g transform="matrix(0.400191,0,0,0.713075,580.59,722.715)">
            <path d="M652.172,963.434L816.346,963.434" style="fill:none;stroke:black;stroke-width:9.23px;"/>
        </g>
        <g transform="matrix(0.400191,0,0,0.713075,556.4,737.357)">
            <path d="M652.172,963.434L816.346,963.434" style="fill:none;stroke:black;stroke-width:9.23px;"/>
        </g>
        <g transform="matrix(0.230755,0,0,0.713075,845.371,682.284)">
            <path d="M652.172,963.434L816.346,963.434" style="fill:none;stroke:black;stroke-width:10.07px;"/>
        </g>
        <g transform="matrix(0.158854,0,0,0.713075,892.263,694.12)">
            <path d="M652.172,963.434L816.346,963.434" style="fill:none;stroke:black;stroke-width:10.33px;"/>
        </g>
        <g transform="matrix(0.167705,0,0,0.713075,893.628,706.919)">
            <path d="M652.172,963.434L816.346,963.434" style="fill:none;stroke:black;stroke-width:10.31px;"/>
        </g>
        <g transform="matrix(0.230755,0,0,0.713075,826.429,719.986)">
            <path d="M652.172,963.434L816.346,963.434" style="fill:none;stroke:black;stroke-width:10.07px;"/>
        </g>
        <g transform="matrix(0.230755,0,0,0.713075,507.92,682.284)">
            <path d="M652.172,963.434L816.346,963.434" style="fill:none;stroke:black;stroke-width:10.07px;"/>
        </g>
        <g transform="matrix(0.148569,0,0,0.713075,566.968,693.25)">
            <path d="M652.172,963.434L816.346,963.434" style="fill:none;stroke:black;stroke-width:10.36px;"/>
        </g>
        <g transform="matrix(0.230755,0,0,0.713075,499.876,706.919)">
            <path d="M652.172,963.434L816.346,963.434" style="fill:none;stroke:black;stroke-width:10.07px;"/>
        </g>
        <g transform="matrix(0.177617,0,0,0.713075,560.219,719.529)">
            <path d="M652.172,963.434L816.346,963.434" style="fill:none;stroke:black;stroke-width:10.27px;"/>
        </g>
        <g transform="matrix(0.687038,0,0,0.713075,336.677,647.182)">
            <path d="M652.172,963.434L816.346,963.434" style="fill:none;stroke:black;stroke-width:7.62px;"/>
        </g>
        <g transform="matrix(0.400191,0,0,0.713075,523.549,675.407)">
            <path d="M652.172,963.434L816.346,963.434" style="fill:none;stroke:black;stroke-width:9.23px;"/>
        </g>
        <g transform="matrix(0.547533,0,0,0.713075,460.307,663.071)">
            <path d="M652.172,963.434L816.346,963.434" style="fill:none;stroke:black;stroke-width:8.4px;"/>
        </g>
        <path d="M608.275,1381.12C622.952,1311.32 722.93,1257.24 843.917,1257.24C964.903,1257.24 1064.88,1311.32 1079.56,1381.12L1046.85,1381.12C1046.85,1360.8 1030.35,1344.3 1010.03,1344.3C989.713,1344.3 973.216,1360.8 973.216,1381.12L938.464,1381.12C938.464,1328.94 896.099,1286.57 843.917,1286.57C791.735,1286.57 749.369,1328.94 749.369,1381.12L713.976,1381.12C713.976,1360.8 697.479,1344.3 677.16,1344.3C656.84,1344.3 640.343,1360.8 640.343,1381.12L608.275,1381.12Z" style="fill:white;stroke:black;stroke-width:5.34px;"/>
        <g transform="matrix(0.169526,0.000665148,0.000665148,0.999999,625.163,122.853)">
            <path d="M641.27,1226.73L755.026,1226.64" style="fill:none;stroke:black;stroke-width:7.44px;"/>
        </g>
        <g transform="matrix(0.169526,0.000665148,0.000665148,0.999999,937.299,142.125)">
            <path d="M641.27,1226.73L755.026,1226.64" style="fill:none;stroke:black;stroke-width:7.44px;"/>
        </g>
        <g transform="matrix(0.169526,0.000665148,0.000665148,0.999999,515.26,135.286)">
            <path d="M641.27,1226.73L755.026,1226.64" style="fill:none;stroke:black;stroke-width:7.44px;"/>
        </g>
        <g transform="matrix(0.169526,0.000665148,0.000665148,0.999999,829.028,142.11)">
            <path d="M641.27,1226.73L755.026,1226.64" style="fill:none;stroke:black;stroke-width:7.44px;"/>
        </g>
        <g transform="matrix(0.169526,0.000665148,0.000665148,0.999999,786.24,72.448)">
            <path d="M641.27,1226.73L755.026,1226.64" style="fill:none;stroke:black;stroke-width:7.44px;"/>
        </g>
        <g transform="matrix(0.169526,0.000665148,0.000665148,0.999999,819.386,109.886)">
            <path d="M641.27,1226.73L755.026,1226.64" style="fill:none;stroke:black;stroke-width:7.44px;"/>
        </g>
        <g transform="matrix(0.169526,0.000665148,0.000665148,0.999999,632.264,107.022)">
            <path d="M641.27,1226.73L755.026,1226.64" style="fill:none;stroke:black;stroke-width:7.44px;"/>
        </g>
        <g transform="matrix(0.15569,0.00067623,0.00067623,0.999999,819.39,97.3678)">
            <path d="M641.27,1226.73L755.026,1226.64" style="fill:none;stroke:black;stroke-width:7.45px;"/>
        </g>
    </g>
    <g transform="matrix(1.46574,0,0,1.46574,2403.2,-709.046)">
        <g transform="matrix(0.625529,0,0,0.641912,167.598,498.797)">
            <path d="M652.172,963.434L816.346,963.434" style="fill:none;stroke:black;stroke-width:10.76px;"/>
        </g>
        <g transform="matrix(0.625529,0,0,0.641912,168.877,427.045)">
            <path d="M652.172,963.434L864.624,963.434" style="fill:none;stroke:black;stroke-width:10.76px;"/>
        </g>
        <g transform="matrix(0.625529,0,0,0.641912,-129.702,473.681)">
            <path d="M652.172,963.434L816.346,963.434" style="fill:none;stroke:black;stroke-width:10.76px;"/>
        </g>
        <g transform="matrix(0.625529,0,0,0.641912,-129.702,519.834)">
            <path d="M565.414,930.662L580.256,963.434L506.796,963.434L816.346,963.434" style="fill:none;stroke:black;stroke-width:10.76px;"/>
        </g>
        <path d="M380.946,1005.18L575.55,1005.18L575.55,1147.72C575.55,1165.02 531.95,1179.06 478.248,1179.06C424.546,1179.06 380.946,1165.02 380.946,1147.72L380.946,1005.18Z" style="fill:white;stroke:black;stroke-width:6.82px;"/>
        <path d="M360.099,1005.18C429.313,1029.11 506.879,1032.12 596.397,1005.18C596.461,1003.59 596.493,1002 596.493,1000.4C596.493,949.704 478.248,831.407 478.248,831.407C478.248,831.407 360.003,949.704 360.003,1000.4C360.003,1002 360.035,1003.59 360.099,1005.18Z" style="fill:white;stroke:black;stroke-width:6.82px;"/>
        <path d="M234.572,1138.27L244.184,1092.12" style="fill:none;stroke:black;stroke-width:6.82px;"/>
        <path d="M234.572,1138.27L256.485,1117.24" style="fill:none;stroke:black;stroke-width:6.82px;"/>
        <path d="M318.384,1092.12L309.87,1077.62" style="fill:none;stroke:black;stroke-width:6.82px;"/>
        <g transform="matrix(1,0,0,1,356.628,-46.6362)">
            <path d="M318.384,1092.12L309.87,1077.62" style="fill:none;stroke:black;stroke-width:6.82px;"/>
        </g>
        <path d="M318.384,1092.12L329.598,1066.84" style="fill:none;stroke:black;stroke-width:6.82px;"/>
        <g transform="matrix(1,0,0,1,356.628,-46.6362)">
            <path d="M318.384,1092.12L329.598,1066.84" style="fill:none;stroke:black;stroke-width:6.82px;"/>
        </g>
        <path d="M642.054,1117.24L635.029,1104.6" style="fill:none;stroke:black;stroke-width:6.82px;"/>
        <path d="M642.054,1117.24L660.706,1097.95" style="fill:none;stroke:black;stroke-width:6.82px;"/>
        <path d="M642.054,1117.24L638.542,1077.62" style="fill:none;stroke:black;stroke-width:6.82px;"/>
        <path d="M373.994,1008.86C378.653,990.401 386.318,973.191 396.227,957.005" style="fill:none;stroke:black;stroke-width:6.82px;"/>
        <path d="M485.971,1021.52C486.661,1010.68 487.059,999.787 487.271,988.936" style="fill:none;stroke:black;stroke-width:6.82px;"/>
        <path d="M457.177,1021.52C459.057,1005.27 462.079,989.493 465.133,973.434" style="fill:none;stroke:black;stroke-width:6.82px;"/>
        <path d="M582.485,1007.74C578.899,995.679 575.106,982.787 568.992,971.711C565.017,964.511 559.567,958.035 555.052,951.163" style="fill:none;stroke:black;stroke-width:6.82px;"/>
        <path d="M481.165,836.701C468.615,852.149 457.712,868.48 447.569,885.567" style="fill:none;stroke:black;stroke-width:6.82px;"/>
        <path d="M482.017,841.301C481.388,851.021 481.242,860.758 481.116,870.496" style="fill:none;stroke:black;stroke-width:6.82px;"/>
        <path d="M487.984,843.647C494.268,856.986 501.05,870.239 505.414,884.378" style="fill:none;stroke:black;stroke-width:6.82px;"/>
        <g transform="matrix(1,0,0,1,0.972109,-3.80903)">
            <path d="M454.741,1176.26C454.657,1157.18 450.492,1125.91 464.076,1110.18C474.041,1098.64 489.665,1098.37 496.699,1108.77C507.003,1124 507.068,1150.11 505.414,1174.6" style="fill:none;stroke:black;stroke-width:6.82px;"/>
        </g>
    </g>
    <g transform="matrix(1.71537,0,0,1.71537,192.802,943.611)">
        <g transform="matrix(0.743949,0,0,0.743949,338.778,318.527)">
            <g transform="matrix(1,0,0,1,-261.483,31.7238)">
                <path d="M1057.21,1198.06L1257.1,1379.86L1053.97,1402.01L1057.21,1198.06Z" style="fill:white;stroke:black;stroke-width:7.84px;"/>
            </g>
            <g transform="matrix(1,0,0,1,-244.885,83.6692)">
                <path d="M1039.1,1146.12L1123.61,1340.64L1037.37,1350.07L1039.1,1146.12Z" style="fill:white;stroke:black;stroke-width:7.84px;"/>
            </g>
            <g transform="matrix(1.43447,0,0,0.983838,-372.942,19.876)">
                <path d="M813.189,1229.79L818.123,1447.4L740.867,1416.76L813.189,1229.79Z" style="fill:white;stroke:black;stroke-width:6.37px;"/>
            </g>
            <path d="M782.645,1274.31L760.781,1325.78" style="fill:none;stroke:black;stroke-width:7.84px;"/>
            <path d="M782.645,1313.06L771.713,1361.22" style="fill:none;stroke:black;stroke-width:7.84px;"/>
            <path d="M828.924,1274.31L904.053,1347.86" style="fill:none;stroke:black;stroke-width:7.84px;"/>
            <path d="M851.963,1320.48L894.049,1382.53" style="fill:none;stroke:black;stroke-width:7.84px;"/>
        </g>
        <g transform="matrix(1,0,0,1,-261.483,31.7238)">
            <path d="M1091.11,1201.7L1257.1,1379.86L1053.97,1402.01L1091.11,1201.7Z" style="fill:white;stroke:black;stroke-width:5.83px;"/>
        </g>
        <g transform="matrix(1,0,0,1,-244.885,83.6692)">
            <path d="M1073,1149.76L1123.61,1340.64L1037.37,1350.07L1073,1149.76Z" style="fill:white;stroke:black;stroke-width:5.83px;"/>
        </g>
        <g transform="matrix(1.43447,0,0,0.983838,-372.942,19.876)">
            <path d="M836.816,1233.48L818.123,1447.4L740.867,1416.76L836.816,1233.48Z" style="fill:white;stroke:black;stroke-width:4.74px;"/>
        </g>
        <g transform="matrix(1,0,0,1,-3.71314,73.5491)">
            <path d="M782.645,1274.31L760.781,1325.78" style="fill:none;stroke:black;stroke-width:5.83px;"/>
        </g>
        <g transform="matrix(1,0,0,1,15.3065,14.3612)">
            <path d="M792.238,1288.47L771.713,1361.22" style="fill:none;stroke:black;stroke-width:5.83px;"/>
        </g>
        <g transform="matrix(1,0,0,1,21.0433,16.3369)">
            <path d="M834.64,1258.62L904.053,1347.86" style="fill:none;stroke:black;stroke-width:5.83px;"/>
        </g>
        <g transform="matrix(1,0,0,1,14.5257,13.1029)">
            <path d="M853.438,1306.47L894.049,1382.53" style="fill:none;stroke:black;stroke-width:5.83px;"/>
        </g>
        <path d="M1056.53,1345L1153.9,1344.64" style="fill:none;stroke:black;stroke-width:5.83px;"/>
        <g transform="matrix(1.01219,-4.48671e-05,-4.48671e-05,1,-463.95,40.9635)">
            <path d="M1095.91,1345L1159.9,1344.61" style="fill:none;stroke:black;stroke-width:5.79px;"/>
        </g>
        <g transform="matrix(1,0,0,1,-439.139,23.747)">
            <path d="M1056.53,1345L1163.56,1344.64" style="fill:none;stroke:black;stroke-width:5.83px;"/>
        </g>
        <g transform="matrix(1,0,0,1,-70.3972,55.3407)">
            <path d="M1056.53,1345L1126.93,1344.74" style="fill:none;stroke:black;stroke-width:5.83px;"/>
        </g>
        <g transform="matrix(1,0,0,1,-24.8338,40.8457)">
            <path d="M1077.22,1345L1126.93,1344.74" style="fill:none;stroke:black;stroke-width:5.83px;"/>
        </g>
        <g transform="matrix(1,0,0,1,82.2159,-27.7501)">
            <path d="M670.908,1357.61L670.908,1236.83" style="fill:none;stroke:black;stroke-width:5.83px;"/>
        </g>
        <g transform="matrix(6.12323e-17,-1,1,6.12323e-17,-562.58,1948.74)">
            <path d="M700.609,1179.98L716.386,1259.71L684.831,1259.71L700.609,1179.98Z" style="fill:white;stroke:black;stroke-width:5.83px;"/>
        </g>
        <g transform="matrix(6.12323e-17,-1,1,6.12323e-17,-477.408,1847.44)">
            <path d="M638.357,1230.53L583.531,1230.53L597.238,1174.54L624.651,1174.54L638.357,1230.53Z" style="fill:white;stroke:black;stroke-width:5.83px;"/>
        </g>
    </g>
    <g transform="matrix(2.51513,0,0,2.51513,-145.275,60.4505)">
        <g transform="matrix(0.795883,0,0,0.795883,-78.4925,426.21)">
            <path d="M649.216,1770.83C649.216,1770.83 648.747,1771.55 644.156,1772.48C639.565,1773.42 640.829,1773.79 632.719,1772.48C624.608,1771.17 609.056,1765.7 600.709,1762.63C592.363,1759.55 582.383,1762.86 573.25,1763.85C564.117,1764.85 547.018,1759.96 535.122,1759.76C523.225,1759.56 524.312,1759.21 518.65,1759.01C512.987,1758.81 504.566,1758.99 500.128,1757.31C495.69,1755.64 488.724,1755.98 482.787,1758.62C476.851,1761.25 474.109,1760.33 468.814,1759.55C463.52,1758.76 456.593,1753.86 449.54,1756.83C442.487,1759.8 437.577,1759.15 428.278,1761.34C418.979,1763.52 409.639,1764.14 401.223,1764.1C392.808,1764.07 386.83,1764.14 374.385,1765.2C361.94,1766.25 361.996,1767.52 354.056,1767.54C346.116,1767.56 331.402,1763.44 331.402,1763.44C325.431,1762.34 314.198,1760.82 314.198,1760.82C314.198,1760.82 316.255,1756.28 317.535,1754.15C324.165,1743.1 328.495,1729.66 331.549,1717.44C335.169,1702.96 334.739,1690.23 345.564,1679.4C345.721,1679.25 346.074,1679.25 346.232,1679.4C353.779,1686.95 363.666,1679.99 369.589,1674.06C373.988,1669.66 369.525,1659.44 374.261,1654.71C377.019,1651.95 384.358,1653.2 387.608,1646.7C398.927,1624.07 383.531,1600 400.452,1583.08C401.66,1581.87 403.285,1576.27 412.366,1573.89C414.946,1573.22 421.149,1576.25 423.842,1578.65C434.501,1588.18 427.089,1593.7 440.998,1600.65C443.886,1602.1 450.037,1586.09 451.008,1584.64C458.43,1573.5 449.428,1571.08 456.804,1561.86C464.17,1552.65 463.83,1547.67 465.781,1537.91C467.064,1531.5 474.661,1528.13 476.497,1522.62C480.364,1511.02 498.655,1512.76 501.902,1515.98C533.677,1547.46 515.352,1553.35 531.759,1577.96C536.236,1584.68 543.744,1574.17 550.289,1584C564.66,1605.59 553.164,1617.43 559.789,1630.68C560.28,1631.67 560.674,1631.57 561.124,1632.02C564.289,1635.18 567.499,1627.53 571.134,1629.35C575.614,1631.59 576.91,1633.79 579.81,1636.69C583.229,1640.11 577.454,1649.33 579.81,1654.04C582.508,1659.44 592.781,1660.63 596.494,1668.06C598.928,1672.92 592.189,1677.16 593.825,1682.07C595.357,1686.67 600.797,1689.57 601.833,1694.75C603.089,1701.03 601.617,1708.57 603.168,1714.77C604.668,1720.78 617.654,1741.94 621.187,1745.47C625.146,1749.43 631.663,1748.41 634.534,1754.15C636.368,1757.82 636.616,1764.9 638.538,1766.83C640.402,1768.69 646.475,1768.09 649.216,1770.83Z" style="fill:white;stroke:black;stroke-width:5px;"/>
        </g>
        <g transform="matrix(0.795883,0,0,0.795883,-78.4925,426.21)">
            <path d="M441.982,1601.01C439.127,1604 432.174,1612.29 428.68,1614.04C426.823,1614.96 425.378,1612.93 424.074,1612.28C422.54,1611.51 420.038,1612.48 418.372,1612.06C417.883,1611.94 415.634,1611.18 415.301,1611.84C414.675,1613.09 415.086,1615.12 414.643,1616.45C413.777,1619.05 411.903,1621.05 410.695,1623.47C409.55,1625.76 409.335,1628.6 408.283,1630.7C407.022,1633.23 403.346,1634.6 401.703,1637.07C400.703,1638.57 401.612,1640.76 400.826,1642.33C398.752,1646.48 396.154,1645.76 392.93,1647.37C389.791,1648.94 386.635,1649.38 382.75,1651.26" style="fill:none;stroke:black;stroke-width:5px;"/>
        </g>
        <g transform="matrix(0.795883,0,0,0.795883,-78.4925,426.21)">
            <path d="M380.804,1763.41C389.021,1759.19 403.075,1751.54 404.867,1749.15C414.296,1736.58 409.735,1722.94 416.245,1709.92C418.086,1706.24 424.937,1703.52 427.23,1698.93C429.812,1693.77 428.493,1683.79 434.293,1680.89C438.122,1678.97 445.522,1686.29 446.848,1683.63C449.259,1678.81 453.618,1666.71 459.011,1664.02C460.339,1663.35 468.218,1662.08 468.819,1660.88C470.934,1656.65 471.481,1648.36 476.274,1645.97C490.549,1638.83 494.701,1662.83 500.6,1668.72C501.55,1669.67 504.517,1667.67 506.485,1668.33C508.78,1669.1 513.163,1674.63 513.94,1676.96C514.883,1679.79 509.244,1687.18 511.193,1689.12C512.418,1690.35 517.208,1687.73 519.04,1688.34C519.988,1688.66 533.301,1704.56 535.126,1706.39C542.884,1714.15 540.72,1727.78 545.327,1736.99C546.697,1739.73 552.001,1739.94 553.959,1742.88C558.744,1750.06 561.707,1756.9 568.084,1763.28" style="fill:none;stroke:black;stroke-width:5px;"/>
        </g>
        <g transform="matrix(0.795883,0,0,0.795883,-78.4925,426.21)">
            <path d="M440.213,1757.75C436.911,1760.33 441.892,1746.74 442.987,1745.88C447.873,1742.08 449.849,1734.06 452.72,1728.31C454.633,1724.49 458.534,1717.3 459.403,1715.56C461.332,1711.7 464.168,1705.83 465.971,1704.03C470.754,1699.25 471.437,1697.69 482.159,1695.01C489.654,1693.14 491.28,1706.63 494.271,1711.12C496.743,1714.82 499.913,1721.55 500.682,1724C502.595,1730.11 504.862,1729 506.019,1731.32C506.926,1733.13 509.855,1735.63 510.747,1737.42C513.434,1742.79 513.31,1751.41 517.987,1758.02L503.43,1756.47L493.358,1752.45L474.444,1759.39L461.118,1755.04L452.836,1753.93L440.213,1757.75Z" style="stroke:black;stroke-width:5px;"/>
        </g>
        <g transform="matrix(0.795883,0,0,0.795883,-78.4925,426.21)">
            <path d="M327.171,1732.24C327.111,1732.4 325.781,1732.9 325.467,1733.21C322.425,1736.25 320.291,1737.13 315.986,1737.13C311.223,1737.13 305.693,1736.84 301.147,1737.75C299.966,1737.98 299.4,1739.43 298.261,1739.81C297.086,1740.2 295.877,1739.19 294.757,1739.19C292.844,1739.19 290.287,1739.6 287.75,1739.6" style="fill:none;stroke:black;stroke-width:5px;"/>
        </g>
        <g transform="matrix(0.795883,0,0,0.795883,-78.4925,426.21)">
            <path d="M331.813,1711.12C329.472,1711.39 328.071,1713.44 325.673,1713.84C323.729,1714.16 319.264,1715.68 317.429,1715.07C315.514,1714.43 313.94,1714 311.658,1714.45C309.285,1714.93 307.016,1716.76 304.65,1717.55C301.713,1718.53 297.467,1719.37 294.345,1719.81C290.165,1720.41 285.424,1719.4 281.155,1719.4C277.161,1719.4 272.359,1720.4 268.376,1719.61C266.458,1719.22 265.29,1717.75 263.224,1717.75" style="fill:none;stroke:black;stroke-width:5px;"/>
        </g>
        <g transform="matrix(0.795883,0,0,0.795883,-78.4925,426.21)">
            <path d="M338.496,1688.59C337.942,1688.36 337.455,1690.11 336.803,1690.55C335.376,1691.5 333.275,1691.38 331.65,1691.58C326.106,1692.27 322.993,1689.52 318.047,1692.81" style="fill:none;stroke:black;stroke-width:5px;"/>
        </g>
        <g transform="matrix(0.795883,0,0,0.795883,-78.4925,426.21)">
            <path d="M528.989,1573.53C529.096,1573.28 531.594,1578.67 531.819,1578.9C532.939,1580.02 533.449,1580.36 534.027,1581.81C534.733,1583.57 536.117,1585.17 536.7,1586.92C537.29,1588.69 535.626,1590.83 537.049,1592.73C539.399,1595.86 543.51,1598.07 544.371,1602.38C545.272,1606.88 543.303,1611.26 544.836,1615.86C545.118,1616.7 545.934,1616.77 546.58,1617.25C548.201,1618.47 551.248,1620.13 552.275,1621.67C553.016,1622.78 552.87,1624.26 553.437,1625.39C554.207,1626.93 556.912,1628.4 558.319,1629.34C558.796,1629.66 561.121,1632.17 561.314,1632.17" style="fill:none;stroke:black;stroke-width:5px;"/>
        </g>
        <g transform="matrix(0.795883,0,0,0.795883,-78.4925,426.21)">
            <path d="M318.131,1758.94C317.504,1758.99 316.283,1759.32 316.283,1759.32C316.283,1759.32 318.858,1758.82 319.735,1757.94C321.819,1755.86 323.928,1753.16 326.293,1751.38C331.905,1747.17 340.078,1751.53 345.622,1744.13C349.323,1739.2 351.316,1733.09 353.905,1727.91C356.794,1722.14 363.893,1720.52 367.712,1714.8C369.346,1712.34 368.211,1709.31 369.438,1706.86C372.004,1701.72 378.461,1695.98 382.208,1690.98" style="fill:none;stroke:black;stroke-width:5px;"/>
        </g>
        <g transform="matrix(0.795883,0,0,0.795883,-78.4925,426.21)">
            <path d="M394.314,1709.94C394.131,1707.52 401.932,1701.34 402.918,1697.88C404.78,1691.37 401.491,1689.1 402.228,1686.15C403.718,1680.19 412.499,1673.81 416.724,1669.58C421.716,1664.59 423.563,1657.08 427.424,1651.29C430.612,1646.51 437.799,1646.25 441.576,1640.59" style="fill:none;stroke:black;stroke-width:5px;"/>
        </g>
        <g transform="matrix(0.795883,0,0,0.795883,-78.4925,426.21)">
            <path d="M440.786,1623C438.835,1620.67 442.598,1618.28 444.337,1617.12C450.057,1613.3 456.41,1610.02 461.94,1606.07C470.528,1599.94 465.744,1596.86 470.224,1590.88C474.256,1585.51 478.997,1581.69 482.995,1575.7" style="fill:none;stroke:black;stroke-width:5px;"/>
        </g>
        <g transform="matrix(0.795883,0,0,0.795883,-78.4925,426.21)">
            <path d="M493.434,1606.36C491.761,1607.92 492.11,1620.96 495.076,1621.95C497.596,1622.79 500.146,1622.07 502.669,1623.33C510.923,1627.46 519.891,1637.99 521.653,1646.8" style="fill:none;stroke:black;stroke-width:5px;"/>
        </g>
        <g transform="matrix(0.795883,0,0,0.795883,-78.4925,426.21)">
            <path d="M529.944,1617.28C529.864,1619.47 534.157,1622.34 535.459,1624.02C539.326,1628.99 543.169,1634.56 546.504,1639.9C551.258,1647.5 545.82,1653.38 548.23,1660.61C550.402,1667.12 561.768,1668.52 566.869,1672.34C570.251,1674.88 569.854,1679.92 571.011,1683.39C572.024,1686.43 577.028,1689.58 579.64,1691.33" style="fill:none;stroke:black;stroke-width:5px;"/>
        </g>
        <g transform="matrix(0.795883,0,0,0.795883,-78.4925,426.21)">
            <path d="M542.972,1684.34C546.536,1690.81 548.671,1698.87 553.408,1704.79C556.152,1708.22 561.414,1706.95 564.453,1711C568.213,1716.01 565.058,1723.82 568.25,1728.6C570.165,1731.48 575.653,1732.55 578.259,1735.16" style="fill:none;stroke:black;stroke-width:5px;"/>
        </g>
        <g transform="matrix(0.795883,0,0,0.795883,-78.4925,426.21)">
            <path d="M511.715,1707.43C511.065,1711.65 509.142,1717.18 511.643,1721.35C514.441,1726.02 519.985,1727.09 522.343,1732.4C523.896,1735.89 523.438,1743.13 526.83,1744.83" style="fill:none;stroke:black;stroke-width:5px;"/>
        </g>
        <g transform="matrix(0.795883,0,0,0.795883,-78.4925,426.21)">
            <path d="M484.701,1674.74C482.877,1674.83 477.639,1668.38 477.473,1668.55C471.784,1674.23 467.041,1682.72 461.595,1689.25C459.745,1691.47 454.233,1692.7 453.311,1695.47C451.75,1700.15 452.884,1706.44 449.515,1710.65C445.63,1715.51 443.019,1712.18 439.16,1714.11C437.242,1715.06 430.736,1731.99 429.495,1734.47" style="fill:none;stroke:black;stroke-width:5px;"/>
        </g>
        <g transform="matrix(0.795883,0,0,0.795883,-78.4925,426.21)">
            <path d="M493.846,1534.18C492.493,1531.95 497.504,1531.52 499.218,1531.86C502.934,1532.61 503.36,1539.88 503.36,1542.56C503.36,1548.96 506.031,1552.12 507.156,1557.75C508.374,1563.84 508.09,1572.44 511.643,1577.77C513.659,1580.79 516.817,1582.25 518.547,1585.71" style="fill:none;stroke:black;stroke-width:5px;"/>
        </g>
        <g transform="matrix(0.795883,0,0,0.795883,-78.4925,426.21)">
            <path d="M403.539,1609.12C403.353,1605.23 405.116,1601.33 405.512,1600.27C406.524,1597.57 407.536,1595.95 407.686,1591.56C407.7,1591.15 410.166,1587.78 410.166,1587.78C410.166,1587.78 414.299,1585.98 416.379,1586.4C418.598,1586.84 419.564,1589.74 420.176,1591.57" style="fill:none;stroke:black;stroke-width:5px;"/>
        </g>
        <g transform="matrix(0.795883,0,0,0.795883,-78.4925,426.21)">
            <path d="M602.45,1701.45C602.394,1701.01 603.785,1700.39 604.165,1700.22C605.283,1699.73 609.427,1698.7 610.706,1699.02C611.71,1699.27 612.5,1700.3 613.643,1700.49C619.381,1701.44 624.124,1700.63 629.528,1699.55C632.652,1698.93 636.603,1699.65 639.674,1700.09C641.831,1700.4 644.243,1699.31 646.349,1698.89" style="fill:none;stroke:black;stroke-width:5px;"/>
        </g>
        <g transform="matrix(0.795883,0,0,0.795883,-78.4925,426.21)">
            <path d="M612.276,1729C612.345,1729.41 614.904,1728.52 616.046,1728.52C616.86,1728.52 617.614,1728.96 618.449,1728.79C619.204,1728.64 619.767,1727.96 620.584,1728.12C621.206,1728.25 621.428,1728.93 622.053,1729.06C623.242,1729.29 624.684,1728.35 625.791,1728.79C628.811,1730 633.337,1728.89 636.737,1729.46C637.497,1729.58 637.874,1730.27 638.606,1730.39C641.512,1730.88 644.56,1730.66 647.417,1730.66C648.541,1730.66 649.971,1731.1 651.021,1730.92C653.675,1730.48 656.952,1729.31 659.698,1729.86C663.475,1730.61 667.179,1731.33 671.178,1731.33" style="fill:none;stroke:black;stroke-width:5px;"/>
        </g>
        <g transform="matrix(0.795883,0,0,0.795883,-78.4925,426.21)">
            <path d="M635.835,1753.27C635.408,1754.32 637.186,1754.34 637.805,1754.29C640.086,1754.08 642.229,1753.89 644.48,1753.89C646.382,1753.89 648.177,1753.08 650.086,1753.35C653.318,1753.81 657.494,1755.64 660.766,1754.82C661.582,1754.62 662.205,1753.83 663.035,1753.62C664.965,1753.14 668,1753.35 669.977,1753.35" style="fill:none;stroke:black;stroke-width:5px;"/>
        </g>
        <g transform="matrix(1,0,0,1,0,30)">
            <path d="M437.704,1805.24C438.59,1803.69 442.516,1806.25 444.412,1805.62C454.099,1802.39 464.21,1809.01 474.4,1805.62C477.016,1804.74 479.485,1807.35 482.246,1805.97" style="fill:none;stroke:black;stroke-width:3.98px;"/>
        </g>
        <g transform="matrix(1,0,0,1,0,30)">
            <path d="M172.943,1797.16C169.697,1797.46 167.582,1800.41 164.499,1801.56C162.401,1802.35 159.513,1803.68 157.329,1803.99C155.86,1804.2 154.308,1803.83 152.832,1803.99C149.822,1804.33 146.942,1805.68 143.96,1806.18C142.968,1806.35 142.085,1805.88 141.165,1805.69C139.803,1805.42 138.4,1806.04 137.032,1805.82C135.795,1805.61 133.978,1804.77 132.779,1805.57" style="fill:none;stroke:black;stroke-width:3.98px;"/>
        </g>
    </g>
    <g transform="matrix(2.51513,0,0,2.51513,-69.8215,60.4505)">
        <g transform="matrix(1,0,0,1,0,-11.5271)">
            <g transform="matrix(1,0,0,1,25.175,0)">
                <path d="M662.385,1849.1L588.086,1849.1L606.66,1686.51L643.81,1686.51L662.385,1849.1Z" style="fill:white;stroke:black;stroke-width:3.98px;"/>
            </g>
            <g transform="matrix(1,0,0,1,154.483,0)">
                <path d="M662.385,1849.1L588.086,1849.1L606.66,1686.51L643.81,1686.51L662.385,1849.1Z" style="fill:white;stroke:black;stroke-width:3.98px;"/>
            </g>
        </g>
        <g transform="matrix(1,0,0,1,0,-11.5271)">
            <path d="M768,1849.1L662.385,1849.1L688.789,1615.02L741.596,1615.02L768,1849.1Z" style="fill:white;stroke:black;stroke-width:3.98px;"/>
        </g>
        <g transform="matrix(-1,-1.22465e-16,1.22465e-16,-1,1405.24,3163.85)">
            <path d="M733.122,1615.02L646.979,1615.02L663.404,1560.36L716.734,1560.36L733.122,1615.02Z" style="fill:white;stroke:black;stroke-width:3.98px;"/>
        </g>
        <g transform="matrix(1,0,0,1,0,-11.5271)">
            <path d="M683.498,1494.8L694.874,1560.36L672.121,1560.36L683.498,1494.8Z" style="fill:white;stroke:black;stroke-width:3.98px;"/>
        </g>
        <g transform="matrix(1,0,0,1,31.6949,-11.5271)">
            <path d="M683.498,1494.8L694.874,1560.36L672.121,1560.36L683.498,1494.8Z" style="fill:white;stroke:black;stroke-width:3.98px;"/>
        </g>
        <g transform="matrix(1,0,0,1,63.3899,-11.5271)">
            <path d="M683.498,1494.8L694.874,1560.36L672.121,1560.36L683.498,1494.8Z" style="fill:white;stroke:black;stroke-width:3.98px;"/>
        </g>
        <g transform="matrix(0.604343,0,0,0.604343,425.587,834.413)">
            <path d="M496.273,1606.37C496.273,1596.95 488.633,1589.31 479.209,1589.31L479.206,1589.31C469.782,1589.31 462.142,1596.95 462.142,1606.37L462.142,1659.92L496.273,1659.92L496.273,1606.37Z" style="fill:white;stroke:black;stroke-width:6.58px;"/>
        </g>
        <g transform="matrix(1,0,0,1,-3.59859,-11.5271)">
            <path d="M654.009,1597.59L677.29,1686.51L630.728,1686.51L654.009,1597.59Z" style="fill:white;stroke:black;stroke-width:3.98px;"/>
        </g>
        <g transform="matrix(1,0,0,1,125.709,-11.5271)">
            <path d="M654.009,1597.59L677.29,1686.51L630.728,1686.51L654.009,1597.59Z" style="fill:white;stroke:black;stroke-width:3.98px;"/>
        </g>
        <g transform="matrix(0.364046,0,0,0.364046,476.538,1133.62)">
            <path d="M489.448,1549.25C489.448,1546.11 488.201,1543.1 485.982,1540.88C483.762,1538.66 480.752,1537.41 477.613,1537.41C477.613,1537.41 477.612,1537.41 477.611,1537.41C474.472,1537.41 471.462,1538.66 469.242,1540.88C467.023,1543.1 465.776,1546.11 465.776,1549.25C465.776,1568.99 465.776,1606.48 465.776,1606.48L489.448,1606.48L489.448,1549.25Z" style="fill:white;stroke:black;stroke-width:10.92px;"/>
        </g>
        <g transform="matrix(0.364046,0,0,0.364046,476.538,1171.45)">
            <path d="M489.448,1549.25C489.448,1546.11 488.201,1543.1 485.982,1540.88C483.762,1538.66 480.752,1537.41 477.613,1537.41C477.613,1537.41 477.612,1537.41 477.611,1537.41C474.472,1537.41 471.462,1538.66 469.242,1540.88C467.023,1543.1 465.776,1546.11 465.776,1549.25C465.776,1568.99 465.776,1606.48 465.776,1606.48L489.448,1606.48L489.448,1549.25Z" style="fill:white;stroke:black;stroke-width:10.92px;"/>
        </g>
        <g transform="matrix(0.364046,0,0,0.364046,605.845,1171.45)">
            <path d="M489.448,1549.25C489.448,1546.11 488.201,1543.1 485.982,1540.88C483.762,1538.66 480.752,1537.41 477.613,1537.41C477.613,1537.41 477.612,1537.41 477.611,1537.41C474.472,1537.41 471.462,1538.66 469.242,1540.88C467.023,1543.1 465.776,1546.11 465.776,1549.25C465.776,1568.99 465.776,1606.48 465.776,1606.48L489.448,1606.48L489.448,1549.25Z" style="fill:white;stroke:black;stroke-width:10.92px;"/>
        </g>
        <g transform="matrix(0.364046,0,0,0.364046,605.845,1133.62)">
            <path d="M489.448,1549.25C489.448,1546.11 488.201,1543.1 485.982,1540.88C483.762,1538.66 480.752,1537.41 477.613,1537.41C477.613,1537.41 477.612,1537.41 477.611,1537.41C474.472,1537.41 471.462,1538.66 469.242,1540.88C467.023,1543.1 465.776,1546.11 465.776,1549.25C465.776,1568.99 465.776,1606.48 465.776,1606.48L489.448,1606.48L489.448,1549.25Z" style="fill:white;stroke:black;stroke-width:10.92px;"/>
        </g>
        <g transform="matrix(0.364046,0,0,0.364046,541.32,1171.45)">
            <path d="M489.448,1549.25C489.448,1546.11 488.201,1543.1 485.982,1540.88C483.762,1538.66 480.752,1537.41 477.613,1537.41C477.613,1537.41 477.612,1537.41 477.611,1537.41C474.472,1537.41 471.462,1538.66 469.242,1540.88C467.023,1543.1 465.776,1546.11 465.776,1549.25C465.776,1568.99 465.776,1606.48 465.776,1606.48L489.448,1606.48L489.448,1549.25Z" style="fill:white;stroke:black;stroke-width:10.92px;"/>
        </g>
        <g transform="matrix(0.364046,0,0,0.364046,541.32,1135.7)">
            <path d="M489.448,1549.25C489.448,1546.11 488.201,1543.1 485.982,1540.88C483.762,1538.66 480.752,1537.41 477.613,1537.41C477.613,1537.41 477.612,1537.41 477.611,1537.41C474.472,1537.41 471.462,1538.66 469.242,1540.88C467.023,1543.1 465.776,1546.11 465.776,1549.25C465.776,1568.99 465.776,1606.48 465.776,1606.48L489.448,1606.48L489.448,1549.25Z" style="fill:white;stroke:black;stroke-width:10.92px;"/>
        </g>
        <g transform="matrix(0.364046,0,0,0.364046,541.32,1099.36)">
            <path d="M489.448,1549.25C489.448,1546.11 488.201,1543.1 485.982,1540.88C483.762,1538.66 480.752,1537.41 477.613,1537.41C477.613,1537.41 477.612,1537.41 477.611,1537.41C474.472,1537.41 471.462,1538.66 469.242,1540.88C467.023,1543.1 465.776,1546.11 465.776,1549.25C465.776,1568.99 465.776,1606.48 465.776,1606.48L489.448,1606.48L489.448,1549.25Z" style="fill:white;stroke:black;stroke-width:10.92px;"/>
        </g>
        <g transform="matrix(1,0,0,1,0,-10)">
            <path d="M816.868,1839.6L890.866,1839.6" style="fill:none;stroke:black;stroke-width:3.98px;"/>
        </g>
        <g transform="matrix(1,0,0,1,-278.579,-10)">
            <path d="M841.196,1839.6L890.866,1839.6" style="fill:none;stroke:black;stroke-width:3.98px;"/>
        </g>
        <g transform="matrix(1,0,0,1,-274.29,-38.2357)">
            <path d="M869.777,1839.6L890.866,1839.6" style="fill:none;stroke:black;stroke-width:3.98px;"/>
        </g>
        <g transform="matrix(1,0,0,1,-275.29,-28.9092)">
            <path d="M821.668,1839.6L890.866,1839.6" style="fill:none;stroke:black;stroke-width:3.98px;"/>
        </g>
        <g transform="matrix(1,0,0,1,-3,-10)">
            <path d="M816.868,1815.29L857.878,1815.29" style="fill:none;stroke:black;stroke-width:3.98px;"/>
        </g>
        <g transform="matrix(1,0,0,1,0,6.7547)">
            <path d="M816.868,1815.29L837.878,1815.29" style="fill:none;stroke:black;stroke-width:3.98px;"/>
        </g>
    </g>
</svg>
